<svg xmlns="http://www.w3.org/2000/svg" version="1.1" width="393" height="248">
<path d="M -0.107422 124.335938 L -0.107422 123.412109 L 6.729980 123.412109 L 6.729980 124.335938 Z " fill="rgb(0, 0, 0)" fill-opacity="1.000000" />
<path d="M 6.892578 124.335938 L 6.892578 123.412109 L 13.729980 123.412109 L 13.729980 124.335938 Z " fill="rgb(0, 0, 0)" fill-opacity="1.000000" />
<path d="M 13.892578 124.335938 L 13.892578 123.412109 L 20.729980 123.412109 L 20.729980 124.335938 Z " fill="rgb(0, 0, 0)" fill-opacity="1.000000" />
<path d="M 20.892578 124.335938 L 20.892578 123.412109 L 27.729980 123.412109 L 27.729980 124.335938 Z " fill="rgb(0, 0, 0)" fill-opacity="1.000000" />
<path d="M 27.892578 124.335938 L 27.892578 123.412109 L 34.729980 123.412109 L 34.729980 124.335938 Z " fill="rgb(0, 0, 0)" fill-opacity="1.000000" />
<path d="M 34.892578 124.335938 L 34.892578 123.412109 L 41.729980 123.412109 L 41.729980 124.335938 Z " fill="rgb(0, 0, 0)" fill-opacity="1.000000" />
<path d="M 41.892578 124.335938 L 41.892578 123.412109 L 48.729980 123.412109 L 48.729980 124.335938 Z " fill="rgb(0, 0, 0)" fill-opacity="1.000000" />
<path d="M 48.892578 124.335938 L 48.892578 123.412109 L 55.729980 123.412109 L 55.729980 124.335938 Z " fill="rgb(0, 0, 0)" fill-opacity="1.000000" />
<path d="M 55.892578 124.335938 L 55.892578 123.412109 L 62.729980 123.412109 L 62.729980 124.335938 Z " fill="rgb(0, 0, 0)" fill-opacity="1.000000" />
<path d="M 72.878906 143.319336 L 72.878906 129.300781 L 73.738281 129.300781 L 73.738281 143.319336 Z " fill="rgb(0, 0, 0)" fill-opacity="1.000000" />
<path d="M 72.878906 156.319336 L 72.878906 142.300781 L 73.738281 142.300781 L 73.738281 156.319336 Z " fill="rgb(0, 0, 0)" fill-opacity="1.000000" />
<path d="M 72.878906 169.319336 L 72.878906 155.300781 L 73.738281 155.300781 L 73.738281 169.319336 Z " fill="rgb(0, 0, 0)" fill-opacity="1.000000" />
<path d="M 72.878906 182.319336 L 72.878906 168.300781 L 73.738281 168.300781 L 73.738281 182.319336 Z " fill="rgb(0, 0, 0)" fill-opacity="1.000000" />
<path d="M 72.878906 195.319336 L 72.878906 181.300781 L 73.738281 181.300781 L 73.738281 195.319336 Z " fill="rgb(0, 0, 0)" fill-opacity="1.000000" />
<path d="M 72.878906 208.319336 L 72.878906 194.300781 L 73.738281 194.300781 L 73.738281 208.319336 Z " fill="rgb(0, 0, 0)" fill-opacity="1.000000" />
<path d="M 72.878906 221.319336 L 72.878906 207.300781 L 73.738281 207.300781 L 73.738281 221.319336 Z " fill="rgb(0, 0, 0)" fill-opacity="1.000000" />
<path d="M 72.878906 234.319336 L 72.878906 220.300781 L 73.738281 220.300781 L 73.738281 234.319336 Z " fill="rgb(0, 0, 0)" fill-opacity="1.000000" />
<path d="M 72.878906 241.335938 L 72.878906 233.300781 L 73.738281 233.300781 L 73.738281 240.412109 L 76.729980 240.412109 L 76.729980 241.335938 Z " fill="rgb(0, 0, 0)" fill-opacity="1.000000" />
<path d="M 76.892578 241.335938 L 76.892578 240.412109 L 83.729980 240.412109 L 83.729980 241.335938 Z " fill="rgb(0, 0, 0)" fill-opacity="1.000000" />
<path d="M 83.892578 241.335938 L 83.892578 240.412109 L 90.729980 240.412109 L 90.729980 241.335938 Z " fill="rgb(0, 0, 0)" fill-opacity="1.000000" />
<path d="M 90.892578 241.335938 L 90.892578 240.412109 L 97.729980 240.412109 L 97.729980 241.335938 Z " fill="rgb(0, 0, 0)" fill-opacity="1.000000" />
<path d="M 97.892578 241.335938 L 97.892578 240.412109 L 100.878906 240.412109 L 100.878906 233.300781 L 101.738281 233.300781 L 101.738281 241.335938 Z " fill="rgb(0, 0, 0)" fill-opacity="1.000000" />
<path d="M 340.082031 240.213379 Q 340.500977 240.320801 340.796387 240.618896 Q 341.091797 240.916992 341.532227 241.808594 L 342.622559 244.000000 L 341.457031 244.000000 L 340.500977 241.975098 Q 340.087402 241.110352 339.757080 240.860596 Q 339.426758 240.610840 338.895020 240.610840 L 337.858398 240.610840 L 337.858398 244.000000 L 336.768066 244.000000 L 336.768066 235.980957 L 339.002441 235.980957 Q 340.323730 235.980957 341.027344 236.577148 Q 341.730957 237.173340 341.730957 238.301270 Q 341.730957 239.096191 341.298584 239.598389 Q 340.866211 240.100586 340.082031 240.213379 Z M 337.858398 236.872559 L 337.858398 239.719238 L 339.045410 239.719238 Q 339.824219 239.719238 340.205566 239.370117 Q 340.586914 239.020996 340.586914 238.301270 Q 340.586914 237.608398 340.181396 237.240479 Q 339.775879 236.872559 339.002441 236.872559 Z " fill="rgb(0, 0, 0)" fill-opacity="1.000000" />
<path d="M 349.015625 240.498047 L 349.015625 240.981445 L 344.734863 240.981445 L 344.734863 241.013672 Q 344.691895 242.243652 345.204834 242.780762 Q 345.717773 243.317871 346.652344 243.317871 Q 347.125000 243.317871 347.640625 243.167480 Q 348.156250 243.017090 348.741699 242.710938 L 348.741699 243.693848 Q 348.177734 243.924805 347.654053 244.040283 Q 347.130371 244.155762 346.641602 244.155762 Q 345.239746 244.155762 344.450195 243.315186 Q 343.660645 242.474609 343.660645 240.997559 Q 343.660645 239.558105 344.434082 238.698730 Q 345.207520 237.839355 346.496582 237.839355 Q 347.645996 237.839355 348.309326 238.618164 Q 348.972656 239.396973 349.015625 240.498047 Z M 348.027344 240.208008 Q 347.962891 239.584961 347.573486 239.131104 Q 347.184082 238.677246 346.453613 238.677246 Q 345.739258 238.677246 345.277344 239.149902 Q 344.815430 239.622559 344.772461 240.213379 Z " fill="rgb(0, 0, 0)" fill-opacity="1.000000" />
<path d="M 354.608398 238.752441 L 354.608398 235.642578 L 355.596680 235.642578 L 355.596680 244.000000 L 354.608398 244.000000 L 354.608398 243.242676 Q 354.361328 243.688477 353.950439 243.922119 Q 353.539551 244.155762 353.002441 244.155762 Q 351.912109 244.155762 351.286377 243.309814 Q 350.660645 242.463867 350.660645 240.976074 Q 350.660645 239.509766 351.289062 238.674561 Q 351.917480 237.839355 353.002441 237.839355 Q 353.544922 237.839355 353.958496 238.072998 Q 354.372070 238.306641 354.608398 238.752441 Z M 351.702637 240.997559 Q 351.702637 242.146973 352.067871 242.732422 Q 352.433105 243.317871 353.147461 243.317871 Q 353.861816 243.317871 354.235107 242.727051 Q 354.608398 242.136230 354.608398 240.997559 Q 354.608398 239.853516 354.235107 239.265381 Q 353.861816 238.677246 353.147461 238.677246 Q 352.433105 238.677246 352.067871 239.262695 Q 351.702637 239.848145 351.702637 240.997559 Z " fill="rgb(0, 0, 0)" fill-opacity="1.000000" />
<path d="M 358.697266 238.005859 L 361.227051 238.005859 L 361.227051 243.231934 L 363.187500 243.231934 L 363.187500 244.000000 L 358.278320 244.000000 L 358.278320 243.231934 L 360.238770 243.231934 L 360.238770 238.773926 L 358.697266 238.773926 Z M 360.238770 235.669434 L 361.227051 235.669434 L 361.227051 236.915527 L 360.238770 236.915527 Z " fill="rgb(0, 0, 0)" fill-opacity="1.000000" />
<path d="M 369.226074 238.193848 L 369.226074 239.160645 Q 368.801758 238.913574 368.372070 238.790039 Q 367.942383 238.666504 367.496582 238.666504 Q 366.825195 238.666504 366.494873 238.884033 Q 366.164551 239.101562 366.164551 239.547363 Q 366.164551 239.950195 366.411621 240.148926 Q 366.658691 240.347656 367.641602 240.535645 L 368.039062 240.610840 Q 368.774902 240.750488 369.153564 241.169434 Q 369.532227 241.588379 369.532227 242.259766 Q 369.532227 243.151367 368.898438 243.653564 Q 368.264648 244.155762 367.136719 244.155762 Q 366.690918 244.155762 366.202148 244.061768 Q 365.713379 243.967773 365.144043 243.779785 L 365.144043 242.759277 Q 365.697266 243.043945 366.202148 243.186279 Q 366.707031 243.328613 367.158203 243.328613 Q 367.813477 243.328613 368.173340 243.062744 Q 368.533203 242.796875 368.533203 242.318848 Q 368.533203 241.631348 367.217285 241.368164 L 367.174316 241.357422 L 366.803711 241.282227 Q 365.949707 241.115723 365.557617 240.720947 Q 365.165527 240.326172 365.165527 239.644043 Q 365.165527 238.779297 365.750977 238.309326 Q 366.336426 237.839355 367.421387 237.839355 Q 367.904785 237.839355 368.350586 237.927979 Q 368.796387 238.016602 369.226074 238.193848 Z " fill="rgb(0, 0, 0)" fill-opacity="1.000000" />
<path d="M 87.861816 137.824707 Q 87.861816 138.490723 88.106201 138.829102 Q 88.350586 139.167480 88.828613 139.167480 L 89.983398 139.167480 L 89.983398 140.000000 L 88.731934 140.000000 Q 87.845703 140.000000 87.359619 139.433350 Q 86.873535 138.866699 86.873535 137.824707 L 86.873535 132.383789 L 85.289062 132.383789 L 85.289062 131.610352 L 87.861816 131.610352 Z " fill="rgb(0, 0, 0)" fill-opacity="1.000000" />
<path d="M 87.770508 149.976074 L 87.442871 149.976074 Q 86.578125 149.976074 86.140381 150.279541 Q 85.702637 150.583008 85.702637 151.184570 Q 85.702637 151.727051 86.030273 152.027832 Q 86.357910 152.328613 86.937988 152.328613 Q 87.754395 152.328613 88.221680 151.761963 Q 88.688965 151.195312 88.694336 150.196289 L 88.694336 149.976074 Z M 89.687988 149.567871 L 89.687988 153.000000 L 88.694336 153.000000 L 88.694336 152.108398 Q 88.377441 152.645508 87.896729 152.900635 Q 87.416016 153.155762 86.728516 153.155762 Q 85.810059 153.155762 85.262207 152.637451 Q 84.714355 152.119141 84.714355 151.249023 Q 84.714355 150.244629 85.388428 149.723633 Q 86.062500 149.202637 87.367676 149.202637 L 88.694336 149.202637 L 88.694336 149.046875 Q 88.688965 148.327148 88.329102 148.002197 Q 87.969238 147.677246 87.179688 147.677246 Q 86.674805 147.677246 86.159180 147.822266 Q 85.643555 147.967285 85.154785 148.246582 L 85.154785 147.258301 Q 85.702637 147.048828 86.204834 146.944092 Q 86.707031 146.839355 87.179688 146.839355 Q 87.926270 146.839355 88.455322 147.059570 Q 88.984375 147.279785 89.312012 147.720215 Q 89.516113 147.988770 89.602051 148.383545 Q 89.687988 148.778320 89.687988 149.567871 Z " fill="rgb(0, 0, 0)" fill-opacity="1.000000" />
<path d="M 89.645020 162.272461 L 89.645020 166.000000 L 88.651367 166.000000 L 88.651367 162.272461 Q 88.651367 161.461426 88.366699 161.080078 Q 88.082031 160.698730 87.475098 160.698730 Q 86.782227 160.698730 86.408936 161.190186 Q 86.035645 161.681641 86.035645 162.600098 L 86.035645 166.000000 L 85.047363 166.000000 L 85.047363 159.984375 L 86.035645 159.984375 L 86.035645 160.886719 Q 86.298828 160.371094 86.750000 160.105225 Q 87.201172 159.839355 87.818848 159.839355 Q 88.737305 159.839355 89.191162 160.443604 Q 89.645020 161.047852 89.645020 162.272461 Z " fill="rgb(0, 0, 0)" fill-opacity="1.000000" />
<path d="M 89.698730 178.693848 Q 89.301270 178.924805 88.879639 179.040283 Q 88.458008 179.155762 88.017578 179.155762 Q 86.621094 179.155762 85.834229 178.317871 Q 85.047363 177.479980 85.047363 175.997559 Q 85.047363 174.515137 85.834229 173.677246 Q 86.621094 172.839355 88.017578 172.839355 Q 88.452637 172.839355 88.866211 172.952148 Q 89.279785 173.064941 89.698730 173.301270 L 89.698730 174.337891 Q 89.306641 173.988770 88.911865 173.833008 Q 88.517090 173.677246 88.017578 173.677246 Q 87.088379 173.677246 86.588867 174.278809 Q 86.089355 174.880371 86.089355 175.997559 Q 86.089355 177.109375 86.591553 177.713623 Q 87.093750 178.317871 88.017578 178.317871 Q 88.533203 178.317871 88.941406 178.159424 Q 89.349609 178.000977 89.698730 177.667969 Z " fill="rgb(0, 0, 0)" fill-opacity="1.000000" />
<path d="M 90.015625 188.498047 L 90.015625 188.981445 L 85.734863 188.981445 L 85.734863 189.013672 Q 85.691895 190.243652 86.204834 190.780762 Q 86.717773 191.317871 87.652344 191.317871 Q 88.125000 191.317871 88.640625 191.167480 Q 89.156250 191.017090 89.741699 190.710938 L 89.741699 191.693848 Q 89.177734 191.924805 88.654053 192.040283 Q 88.130371 192.155762 87.641602 192.155762 Q 86.239746 192.155762 85.450195 191.315186 Q 84.660645 190.474609 84.660645 188.997559 Q 84.660645 187.558105 85.434082 186.698730 Q 86.207520 185.839355 87.496582 185.839355 Q 88.645996 185.839355 89.309326 186.618164 Q 89.972656 187.396973 90.015625 188.498047 Z M 89.027344 188.208008 Q 88.962891 187.584961 88.573486 187.131104 Q 88.184082 186.677246 87.453613 186.677246 Q 86.739258 186.677246 86.277344 187.149902 Q 85.815430 187.622559 85.772461 188.213379 Z " fill="rgb(0, 0, 0)" fill-opacity="1.000000" />
<path d="M 90.203613 200.225098 Q 89.886719 199.978027 89.559082 199.865234 Q 89.231445 199.752441 88.839355 199.752441 Q 87.915527 199.752441 87.426758 200.332520 Q 86.937988 200.912598 86.937988 202.008301 L 86.937988 205.000000 L 85.944336 205.000000 L 85.944336 198.984375 L 86.937988 198.984375 L 86.937988 200.160645 Q 87.185059 199.521484 87.697998 199.180420 Q 88.210938 198.839355 88.914551 198.839355 Q 89.279785 198.839355 89.596680 198.930664 Q 89.913574 199.021973 90.203613 199.215332 Z " fill="rgb(0, 0, 0)" fill-opacity="1.000000" />
<path d="M 100.878906 221.319336 L 100.878906 207.300781 L 101.738281 207.300781 L 101.738281 221.319336 Z " fill="rgb(0, 0, 0)" fill-opacity="1.000000" />
<path d="M 100.878906 234.319336 L 100.878906 220.300781 L 101.738281 220.300781 L 101.738281 234.319336 Z " fill="rgb(0, 0, 0)" fill-opacity="1.000000" />
<path d="M 149.878906 221.319336 L 149.878906 207.300781 L 150.738281 207.300781 L 150.738281 221.319336 Z " fill="rgb(0, 0, 0)" fill-opacity="1.000000" />
<path d="M 149.878906 228.335938 L 149.878906 220.300781 L 150.738281 220.300781 L 150.738281 227.412109 L 153.729980 227.412109 L 153.729980 228.335938 Z " fill="rgb(0, 0, 0)" fill-opacity="1.000000" />
<path d="M 153.892578 228.335938 L 153.892578 227.412109 L 160.729980 227.412109 L 160.729980 228.335938 Z " fill="rgb(0, 0, 0)" fill-opacity="1.000000" />
<path d="M 160.892578 228.335938 L 160.892578 227.412109 L 167.729980 227.412109 L 167.729980 228.335938 Z " fill="rgb(0, 0, 0)" fill-opacity="1.000000" />
<path d="M 167.892578 228.335938 L 167.892578 227.412109 L 174.729980 227.412109 L 174.729980 228.335938 Z " fill="rgb(0, 0, 0)" fill-opacity="1.000000" />
<path d="M 174.892578 228.335938 L 174.892578 227.412109 L 181.729980 227.412109 L 181.729980 228.335938 Z " fill="rgb(0, 0, 0)" fill-opacity="1.000000" />
<path d="M 181.892578 228.335938 L 181.892578 227.412109 L 188.729980 227.412109 L 188.729980 228.335938 Z " fill="rgb(0, 0, 0)" fill-opacity="1.000000" />
<path d="M 188.892578 228.335938 L 188.892578 227.412109 L 195.729980 227.412109 L 195.729980 228.335938 Z " fill="rgb(0, 0, 0)" fill-opacity="1.000000" />
<path d="M 195.892578 228.335938 L 195.892578 227.412109 L 202.729980 227.412109 L 202.729980 228.335938 Z " fill="rgb(0, 0, 0)" fill-opacity="1.000000" />
<path d="M 202.892578 228.335938 L 202.892578 227.412109 L 209.729980 227.412109 L 209.729980 228.335938 Z " fill="rgb(0, 0, 0)" fill-opacity="1.000000" />
<path d="M 209.892578 228.335938 L 209.892578 227.412109 L 216.729980 227.412109 L 216.729980 228.335938 Z " fill="rgb(0, 0, 0)" fill-opacity="1.000000" />
<path d="M 216.892578 228.335938 L 216.892578 227.412109 L 223.729980 227.412109 L 223.729980 228.335938 Z " fill="rgb(0, 0, 0)" fill-opacity="1.000000" />
<path d="M 223.892578 228.335938 L 223.892578 227.412109 L 230.729980 227.412109 L 230.729980 228.335938 Z " fill="rgb(0, 0, 0)" fill-opacity="1.000000" />
<path d="M 230.892578 228.335938 L 230.892578 227.412109 L 237.729980 227.412109 L 237.729980 228.335938 Z " fill="rgb(0, 0, 0)" fill-opacity="1.000000" />
<path d="M 237.892578 228.335938 L 237.892578 227.412109 L 244.729980 227.412109 L 244.729980 228.335938 Z " fill="rgb(0, 0, 0)" fill-opacity="1.000000" />
<path d="M 244.892578 228.335938 L 244.892578 227.412109 L 251.729980 227.412109 L 251.729980 228.335938 Z " fill="rgb(0, 0, 0)" fill-opacity="1.000000" />
<path d="M 251.892578 228.335938 L 251.892578 227.412109 L 258.729980 227.412109 L 258.729980 228.335938 Z " fill="rgb(0, 0, 0)" fill-opacity="1.000000" />
<path d="M 258.892578 228.335938 L 258.892578 227.412109 L 261.878906 227.412109 L 261.878906 220.300781 L 262.738281 220.300781 L 262.738281 228.335938 Z " fill="rgb(0, 0, 0)" fill-opacity="1.000000" />
<path d="M 324.562012 222.202148 L 326.071289 224.221680 L 325.244141 224.221680 L 323.498535 222.202148 Z " fill="rgb(0, 0, 0)" fill-opacity="1.000000" />
<path d="M 328.892578 228.335938 L 328.892578 227.412109 L 335.729980 227.412109 L 335.729980 228.335938 Z " fill="rgb(0, 0, 0)" fill-opacity="1.000000" />
<path d="M 335.892578 228.335938 L 335.892578 227.412109 L 342.729980 227.412109 L 342.729980 228.335938 Z " fill="rgb(0, 0, 0)" fill-opacity="1.000000" />
<path d="M 342.892578 228.335938 L 342.892578 227.412109 L 349.729980 227.412109 L 349.729980 228.335938 Z " fill="rgb(0, 0, 0)" fill-opacity="1.000000" />
<path d="M 349.892578 228.335938 L 349.892578 227.412109 L 356.729980 227.412109 L 356.729980 228.335938 Z " fill="rgb(0, 0, 0)" fill-opacity="1.000000" />
<path d="M 356.892578 228.335938 L 356.892578 227.412109 L 363.729980 227.412109 L 363.729980 228.335938 Z " fill="rgb(0, 0, 0)" fill-opacity="1.000000" />
<path d="M 363.892578 228.335938 L 363.892578 227.412109 L 370.729980 227.412109 L 370.729980 228.335938 Z " fill="rgb(0, 0, 0)" fill-opacity="1.000000" />
<path d="M 370.892578 228.335938 L 370.892578 227.412109 L 377.729980 227.412109 L 377.729980 228.335938 Z " fill="rgb(0, 0, 0)" fill-opacity="1.000000" />
<path d="M 381.985352 222.631836 L 381.985352 225.978027 L 380.782227 225.978027 L 380.782227 222.631836 Z " fill="rgb(0, 0, 0)" fill-opacity="1.000000" />
<path d="M 261.878906 221.319336 L 261.878906 207.300781 L 262.738281 207.300781 L 262.738281 221.319336 Z " fill="rgb(0, 0, 0)" fill-opacity="1.000000" />
<path d="M 319.592285 209.116211 Q 318.877930 210.340820 318.526123 211.557373 Q 318.174316 212.773926 318.174316 214.009277 Q 318.174316 215.239258 318.526123 216.458496 Q 318.877930 217.677734 319.592285 218.913086 L 318.732910 218.913086 Q 317.921875 217.634766 317.524414 216.423584 Q 317.126953 215.212402 317.126953 214.009277 Q 317.126953 212.811523 317.524414 211.597656 Q 317.921875 210.383789 318.732910 209.116211 Z " fill="rgb(0, 0, 0)" fill-opacity="1.000000" />
<path d="M 324.562012 209.202148 L 326.071289 211.221680 L 325.244141 211.221680 L 323.498535 209.202148 Z " fill="rgb(0, 0, 0)" fill-opacity="1.000000" />
<path d="M 328.892578 215.335938 L 328.892578 214.412109 L 335.729980 214.412109 L 335.729980 215.335938 Z " fill="rgb(0, 0, 0)" fill-opacity="1.000000" />
<path d="M 335.892578 215.335938 L 335.892578 214.412109 L 342.729980 214.412109 L 342.729980 215.335938 Z " fill="rgb(0, 0, 0)" fill-opacity="1.000000" />
<path d="M 342.892578 215.335938 L 342.892578 214.412109 L 349.729980 214.412109 L 349.729980 215.335938 Z " fill="rgb(0, 0, 0)" fill-opacity="1.000000" />
<path d="M 349.892578 215.335938 L 349.892578 214.412109 L 356.729980 214.412109 L 356.729980 215.335938 Z " fill="rgb(0, 0, 0)" fill-opacity="1.000000" />
<path d="M 356.892578 215.335938 L 356.892578 214.412109 L 363.729980 214.412109 L 363.729980 215.335938 Z " fill="rgb(0, 0, 0)" fill-opacity="1.000000" />
<path d="M 363.892578 215.335938 L 363.892578 214.412109 L 370.729980 214.412109 L 370.729980 215.335938 Z " fill="rgb(0, 0, 0)" fill-opacity="1.000000" />
<path d="M 370.892578 215.335938 L 370.892578 214.412109 L 377.729980 214.412109 L 377.729980 215.335938 Z " fill="rgb(0, 0, 0)" fill-opacity="1.000000" />
<path d="M 381.985352 209.631836 L 381.985352 212.978027 L 380.782227 212.978027 L 380.782227 209.631836 Z " fill="rgb(0, 0, 0)" fill-opacity="1.000000" />
<path d="M 386.869141 209.116211 L 387.728516 209.116211 Q 388.539551 210.383789 388.937012 211.597656 Q 389.334473 212.811523 389.334473 214.009277 Q 389.334473 215.217773 388.937012 216.431641 Q 388.539551 217.645508 387.728516 218.913086 L 386.869141 218.913086 Q 387.583496 217.666992 387.935303 216.447754 Q 388.287109 215.228516 388.287109 214.009277 Q 388.287109 212.784668 387.935303 211.565430 Q 387.583496 210.346191 386.869141 209.116211 Z " fill="rgb(0, 0, 0)" fill-opacity="1.000000" />
<path d="M 100.878906 208.319336 L 100.878906 194.300781 L 101.738281 194.300781 L 101.738281 208.319336 Z " fill="rgb(0, 0, 0)" fill-opacity="1.000000" />
<path d="M 121.878906 202.335938 L 121.878906 194.300781 L 122.738281 194.300781 L 122.738281 201.412109 L 125.729980 201.412109 L 125.729980 202.335938 Z " fill="rgb(0, 0, 0)" fill-opacity="1.000000" />
<path d="M 125.892578 202.335938 L 125.892578 201.412109 L 132.729980 201.412109 L 132.729980 202.335938 Z " fill="rgb(0, 0, 0)" fill-opacity="1.000000" />
<path d="M 132.892578 202.335938 L 132.892578 201.412109 L 139.729980 201.412109 L 139.729980 202.335938 Z " fill="rgb(0, 0, 0)" fill-opacity="1.000000" />
<path d="M 140.032227 205.418945 L 140.032227 198.866211 L 146.590332 202.142578 Z " fill="rgb(0, 0, 0)" fill-opacity="1.000000" />
<path d="M 149.878906 208.319336 L 149.878906 194.300781 L 150.738281 194.300781 L 150.738281 208.319336 Z " fill="rgb(0, 0, 0)" fill-opacity="1.000000" />
<path d="M 190.251465 196.980957 L 194.972656 196.980957 L 194.972656 197.894043 L 191.341797 197.894043 L 191.341797 200.042480 L 194.634277 200.042480 L 194.634277 200.955566 L 191.341797 200.955566 L 191.341797 205.000000 L 190.251465 205.000000 Z " fill="rgb(0, 0, 0)" fill-opacity="1.000000" />
<path d="M 199.861816 202.824707 Q 199.861816 203.490723 200.106201 203.829102 Q 200.350586 204.167480 200.828613 204.167480 L 201.983398 204.167480 L 201.983398 205.000000 L 200.731934 205.000000 Q 199.845703 205.000000 199.359619 204.433350 Q 198.873535 203.866699 198.873535 202.824707 L 198.873535 197.383789 L 197.289062 197.383789 L 197.289062 196.610352 L 199.861816 196.610352 Z " fill="rgb(0, 0, 0)" fill-opacity="1.000000" />
<path d="M 204.697266 199.005859 L 207.227051 199.005859 L 207.227051 204.231934 L 209.187500 204.231934 L 209.187500 205.000000 L 204.278320 205.000000 L 204.278320 204.231934 L 206.238770 204.231934 L 206.238770 199.773926 L 204.697266 199.773926 Z M 206.238770 196.669434 L 207.227051 196.669434 L 207.227051 197.915527 L 206.238770 197.915527 Z " fill="rgb(0, 0, 0)" fill-opacity="1.000000" />
<path d="M 212.014160 204.242676 L 212.014160 207.288086 L 211.020508 207.288086 L 211.020508 198.984375 L 212.014160 198.984375 L 212.014160 199.752441 Q 212.261230 199.306641 212.672119 199.072998 Q 213.083008 198.839355 213.620117 198.839355 Q 214.710449 198.839355 215.330811 199.682617 Q 215.951172 200.525879 215.951172 202.019043 Q 215.951172 203.485352 215.328125 204.320557 Q 214.705078 205.155762 213.620117 205.155762 Q 213.072266 205.155762 212.661377 204.922119 Q 212.250488 204.688477 212.014160 204.242676 Z M 214.914551 201.997559 Q 214.914551 200.848145 214.552002 200.262695 Q 214.189453 199.677246 213.475098 199.677246 Q 212.755371 199.677246 212.384766 200.265381 Q 212.014160 200.853516 212.014160 201.997559 Q 212.014160 203.136230 212.384766 203.727051 Q 212.755371 204.317871 213.475098 204.317871 Q 214.189453 204.317871 214.552002 203.732422 Q 214.914551 203.146973 214.914551 201.997559 Z " fill="rgb(0, 0, 0)" fill-opacity="1.000000" />
<path d="M 220.297852 197.276367 L 220.297852 198.984375 L 222.542969 198.984375 L 222.542969 199.752441 L 220.297852 199.752441 L 220.297852 203.018066 Q 220.297852 203.684082 220.550293 203.947266 Q 220.802734 204.210449 221.431152 204.210449 L 222.542969 204.210449 L 222.542969 205.000000 L 221.334473 205.000000 Q 220.222656 205.000000 219.766113 204.554199 Q 219.309570 204.108398 219.309570 203.018066 L 219.309570 199.752441 L 217.703613 199.752441 L 217.703613 198.984375 L 219.309570 198.984375 L 219.309570 197.276367 Z " fill="rgb(0, 0, 0)" fill-opacity="1.000000" />
<path d="M 261.878906 208.319336 L 261.878906 194.300781 L 262.738281 194.300781 L 262.738281 208.319336 Z " fill="rgb(0, 0, 0)" fill-opacity="1.000000" />
<path d="M 265.892578 202.335938 L 265.892578 201.412109 L 272.729980 201.412109 L 272.729980 202.335938 Z " fill="rgb(0, 0, 0)" fill-opacity="1.000000" />
<path d="M 272.892578 202.335938 L 272.892578 201.412109 L 279.729980 201.412109 L 279.729980 202.335938 Z " fill="rgb(0, 0, 0)" fill-opacity="1.000000" />
<path d="M 279.892578 202.335938 L 279.892578 201.412109 L 286.729980 201.412109 L 286.729980 202.335938 Z " fill="rgb(0, 0, 0)" fill-opacity="1.000000" />
<path d="M 286.892578 202.335938 L 286.892578 201.412109 L 289.878906 201.412109 L 289.878906 194.300781 L 290.738281 194.300781 L 290.738281 201.412109 L 293.729980 201.412109 L 293.729980 202.335938 Z " fill="rgb(0, 0, 0)" fill-opacity="1.000000" />
<path d="M 293.892578 202.335938 L 293.892578 201.412109 L 300.729980 201.412109 L 300.729980 202.335938 Z " fill="rgb(0, 0, 0)" fill-opacity="1.000000" />
<path d="M 300.892578 202.335938 L 300.892578 201.412109 L 307.729980 201.412109 L 307.729980 202.335938 Z " fill="rgb(0, 0, 0)" fill-opacity="1.000000" />
<path d="M 308.032227 205.418945 L 308.032227 198.866211 L 314.590332 202.142578 Z " fill="rgb(0, 0, 0)" fill-opacity="1.000000" />
<path d="M 319.592285 196.116211 Q 318.877930 197.340820 318.526123 198.557373 Q 318.174316 199.773926 318.174316 201.009277 Q 318.174316 202.239258 318.526123 203.458496 Q 318.877930 204.677734 319.592285 205.913086 L 318.732910 205.913086 Q 317.921875 204.634766 317.524414 203.423584 Q 317.126953 202.212402 317.126953 201.009277 Q 317.126953 199.811523 317.524414 198.597656 Q 317.921875 197.383789 318.732910 196.116211 Z " fill="rgb(0, 0, 0)" fill-opacity="1.000000" />
<path d="M 324.562012 196.202148 L 326.071289 198.221680 L 325.244141 198.221680 L 323.498535 196.202148 Z " fill="rgb(0, 0, 0)" fill-opacity="1.000000" />
<path d="M 328.892578 202.335938 L 328.892578 201.412109 L 335.729980 201.412109 L 335.729980 202.335938 Z " fill="rgb(0, 0, 0)" fill-opacity="1.000000" />
<path d="M 335.892578 202.335938 L 335.892578 201.412109 L 342.729980 201.412109 L 342.729980 202.335938 Z " fill="rgb(0, 0, 0)" fill-opacity="1.000000" />
<path d="M 342.892578 202.335938 L 342.892578 201.412109 L 349.729980 201.412109 L 349.729980 202.335938 Z " fill="rgb(0, 0, 0)" fill-opacity="1.000000" />
<path d="M 349.892578 202.335938 L 349.892578 201.412109 L 356.729980 201.412109 L 356.729980 202.335938 Z " fill="rgb(0, 0, 0)" fill-opacity="1.000000" />
<path d="M 356.892578 202.335938 L 356.892578 201.412109 L 363.729980 201.412109 L 363.729980 202.335938 Z " fill="rgb(0, 0, 0)" fill-opacity="1.000000" />
<path d="M 363.892578 202.335938 L 363.892578 201.412109 L 370.729980 201.412109 L 370.729980 202.335938 Z " fill="rgb(0, 0, 0)" fill-opacity="1.000000" />
<path d="M 370.892578 202.335938 L 370.892578 201.412109 L 377.729980 201.412109 L 377.729980 202.335938 Z " fill="rgb(0, 0, 0)" fill-opacity="1.000000" />
<path d="M 381.985352 196.631836 L 381.985352 199.978027 L 380.782227 199.978027 L 380.782227 196.631836 Z " fill="rgb(0, 0, 0)" fill-opacity="1.000000" />
<path d="M 386.869141 196.116211 L 387.728516 196.116211 Q 388.539551 197.383789 388.937012 198.597656 Q 389.334473 199.811523 389.334473 201.009277 Q 389.334473 202.217773 388.937012 203.431641 Q 388.539551 204.645508 387.728516 205.913086 L 386.869141 205.913086 Q 387.583496 204.666992 387.935303 203.447754 Q 388.287109 202.228516 388.287109 201.009277 Q 388.287109 199.784668 387.935303 198.565430 Q 387.583496 197.346191 386.869141 196.116211 Z " fill="rgb(0, 0, 0)" fill-opacity="1.000000" />
<path d="M 100.878906 195.319336 L 100.878906 181.300781 L 101.738281 181.300781 L 101.738281 195.319336 Z " fill="rgb(0, 0, 0)" fill-opacity="1.000000" />
<path d="M 121.878906 195.319336 L 121.878906 181.300781 L 122.738281 181.300781 L 122.738281 195.319336 Z " fill="rgb(0, 0, 0)" fill-opacity="1.000000" />
<path d="M 149.878906 195.319336 L 149.878906 181.300781 L 150.738281 181.300781 L 150.738281 195.319336 Z " fill="rgb(0, 0, 0)" fill-opacity="1.000000" />
<path d="M 261.878906 195.319336 L 261.878906 181.300781 L 262.738281 181.300781 L 262.738281 195.319336 Z " fill="rgb(0, 0, 0)" fill-opacity="1.000000" />
<path d="M 289.878906 195.319336 L 289.878906 181.300781 L 290.738281 181.300781 L 290.738281 195.319336 Z " fill="rgb(0, 0, 0)" fill-opacity="1.000000" />
<path d="M 319.592285 183.116211 Q 318.877930 184.340820 318.526123 185.557373 Q 318.174316 186.773926 318.174316 188.009277 Q 318.174316 189.239258 318.526123 190.458496 Q 318.877930 191.677734 319.592285 192.913086 L 318.732910 192.913086 Q 317.921875 191.634766 317.524414 190.423584 Q 317.126953 189.212402 317.126953 188.009277 Q 317.126953 186.811523 317.524414 185.597656 Q 317.921875 184.383789 318.732910 183.116211 Z " fill="rgb(0, 0, 0)" fill-opacity="1.000000" />
<path d="M 386.869141 183.116211 L 387.728516 183.116211 Q 388.539551 184.383789 388.937012 185.597656 Q 389.334473 186.811523 389.334473 188.009277 Q 389.334473 189.217773 388.937012 190.431641 Q 388.539551 191.645508 387.728516 192.913086 L 386.869141 192.913086 Q 387.583496 191.666992 387.935303 190.447754 Q 388.287109 189.228516 388.287109 188.009277 Q 388.287109 186.784668 387.935303 185.565430 Q 387.583496 184.346191 386.869141 183.116211 Z " fill="rgb(0, 0, 0)" fill-opacity="1.000000" />
<path d="M 100.878906 182.319336 L 100.878906 168.300781 L 101.738281 168.300781 L 101.738281 182.319336 Z " fill="rgb(0, 0, 0)" fill-opacity="1.000000" />
<path d="M 121.878906 182.319336 L 121.878906 168.300781 L 122.738281 168.300781 L 122.738281 182.319336 Z " fill="rgb(0, 0, 0)" fill-opacity="1.000000" />
<path d="M 149.878906 182.319336 L 149.878906 175.412109 L 153.729980 175.412109 L 153.729980 176.335938 L 150.738281 176.335938 L 150.738281 182.319336 Z " fill="rgb(0, 0, 0)" fill-opacity="1.000000" />
<path d="M 153.892578 176.335938 L 153.892578 175.412109 L 160.729980 175.412109 L 160.729980 176.335938 Z " fill="rgb(0, 0, 0)" fill-opacity="1.000000" />
<path d="M 160.892578 176.335938 L 160.892578 175.412109 L 167.729980 175.412109 L 167.729980 176.335938 Z " fill="rgb(0, 0, 0)" fill-opacity="1.000000" />
<path d="M 167.892578 176.335938 L 167.892578 175.412109 L 174.729980 175.412109 L 174.729980 176.335938 Z " fill="rgb(0, 0, 0)" fill-opacity="1.000000" />
<path d="M 174.892578 176.335938 L 174.892578 175.412109 L 181.729980 175.412109 L 181.729980 176.335938 Z " fill="rgb(0, 0, 0)" fill-opacity="1.000000" />
<path d="M 181.892578 176.335938 L 181.892578 175.412109 L 188.729980 175.412109 L 188.729980 176.335938 Z " fill="rgb(0, 0, 0)" fill-opacity="1.000000" />
<path d="M 188.892578 176.335938 L 188.892578 175.412109 L 195.729980 175.412109 L 195.729980 176.335938 Z " fill="rgb(0, 0, 0)" fill-opacity="1.000000" />
<path d="M 195.892578 176.335938 L 195.892578 175.412109 L 202.729980 175.412109 L 202.729980 176.335938 Z " fill="rgb(0, 0, 0)" fill-opacity="1.000000" />
<path d="M 202.892578 176.335938 L 202.892578 175.412109 L 209.729980 175.412109 L 209.729980 176.335938 Z " fill="rgb(0, 0, 0)" fill-opacity="1.000000" />
<path d="M 209.892578 176.335938 L 209.892578 175.412109 L 216.729980 175.412109 L 216.729980 176.335938 Z " fill="rgb(0, 0, 0)" fill-opacity="1.000000" />
<path d="M 216.892578 176.335938 L 216.892578 175.412109 L 223.729980 175.412109 L 223.729980 176.335938 Z " fill="rgb(0, 0, 0)" fill-opacity="1.000000" />
<path d="M 223.892578 176.335938 L 223.892578 175.412109 L 230.729980 175.412109 L 230.729980 176.335938 Z " fill="rgb(0, 0, 0)" fill-opacity="1.000000" />
<path d="M 230.892578 176.335938 L 230.892578 175.412109 L 237.729980 175.412109 L 237.729980 176.335938 Z " fill="rgb(0, 0, 0)" fill-opacity="1.000000" />
<path d="M 237.892578 176.335938 L 237.892578 175.412109 L 244.729980 175.412109 L 244.729980 176.335938 Z " fill="rgb(0, 0, 0)" fill-opacity="1.000000" />
<path d="M 244.892578 176.335938 L 244.892578 175.412109 L 251.729980 175.412109 L 251.729980 176.335938 Z " fill="rgb(0, 0, 0)" fill-opacity="1.000000" />
<path d="M 251.892578 176.335938 L 251.892578 175.412109 L 258.729980 175.412109 L 258.729980 176.335938 Z " fill="rgb(0, 0, 0)" fill-opacity="1.000000" />
<path d="M 261.878906 182.319336 L 261.878906 176.335938 L 258.892578 176.335938 L 258.892578 175.412109 L 262.738281 175.412109 L 262.738281 182.319336 Z " fill="rgb(0, 0, 0)" fill-opacity="1.000000" />
<path d="M 289.878906 182.319336 L 289.878906 168.300781 L 290.738281 168.300781 L 290.738281 182.319336 Z " fill="rgb(0, 0, 0)" fill-opacity="1.000000" />
<path d="M 324.089355 176.830078 L 325.979980 176.830078 L 325.979980 179.000000 L 324.089355 179.000000 Z " fill="rgb(0, 0, 0)" fill-opacity="1.000000" />
<path d="M 328.892578 176.335938 L 328.892578 175.412109 L 335.729980 175.412109 L 335.729980 176.335938 Z " fill="rgb(0, 0, 0)" fill-opacity="1.000000" />
<path d="M 335.892578 176.335938 L 335.892578 175.412109 L 342.729980 175.412109 L 342.729980 176.335938 Z " fill="rgb(0, 0, 0)" fill-opacity="1.000000" />
<path d="M 342.892578 176.335938 L 342.892578 175.412109 L 349.729980 175.412109 L 349.729980 176.335938 Z " fill="rgb(0, 0, 0)" fill-opacity="1.000000" />
<path d="M 349.892578 176.335938 L 349.892578 175.412109 L 356.729980 175.412109 L 356.729980 176.335938 Z " fill="rgb(0, 0, 0)" fill-opacity="1.000000" />
<path d="M 356.892578 176.335938 L 356.892578 175.412109 L 363.729980 175.412109 L 363.729980 176.335938 Z " fill="rgb(0, 0, 0)" fill-opacity="1.000000" />
<path d="M 363.892578 176.335938 L 363.892578 175.412109 L 370.729980 175.412109 L 370.729980 176.335938 Z " fill="rgb(0, 0, 0)" fill-opacity="1.000000" />
<path d="M 370.892578 176.335938 L 370.892578 175.412109 L 377.729980 175.412109 L 377.729980 176.335938 Z " fill="rgb(0, 0, 0)" fill-opacity="1.000000" />
<path d="M 380.089355 176.830078 L 381.979980 176.830078 L 381.979980 179.000000 L 380.089355 179.000000 Z " fill="rgb(0, 0, 0)" fill-opacity="1.000000" />
<path d="M 100.878906 169.319336 L 100.878906 155.300781 L 101.738281 155.300781 L 101.738281 169.319336 Z " fill="rgb(0, 0, 0)" fill-opacity="1.000000" />
<path d="M 121.878906 169.319336 L 121.878906 155.300781 L 122.738281 155.300781 L 122.738281 169.319336 Z " fill="rgb(0, 0, 0)" fill-opacity="1.000000" />
<path d="M 289.878906 169.319336 L 289.878906 155.300781 L 290.738281 155.300781 L 290.738281 169.319336 Z " fill="rgb(0, 0, 0)" fill-opacity="1.000000" />
<path d="M 100.878906 156.319336 L 100.878906 142.300781 L 101.738281 142.300781 L 101.738281 156.319336 Z " fill="rgb(0, 0, 0)" fill-opacity="1.000000" />
<path d="M 121.878906 156.319336 L 121.878906 142.300781 L 122.738281 142.300781 L 122.738281 156.319336 Z " fill="rgb(0, 0, 0)" fill-opacity="1.000000" />
<path d="M 149.878906 150.335938 L 149.878906 142.300781 L 150.738281 142.300781 L 150.738281 149.412109 L 153.729980 149.412109 L 153.729980 150.335938 Z " fill="rgb(0, 0, 0)" fill-opacity="1.000000" />
<path d="M 153.892578 150.335938 L 153.892578 149.412109 L 160.729980 149.412109 L 160.729980 150.335938 Z " fill="rgb(0, 0, 0)" fill-opacity="1.000000" />
<path d="M 160.892578 150.335938 L 160.892578 149.412109 L 167.729980 149.412109 L 167.729980 150.335938 Z " fill="rgb(0, 0, 0)" fill-opacity="1.000000" />
<path d="M 167.892578 150.335938 L 167.892578 149.412109 L 174.729980 149.412109 L 174.729980 150.335938 Z " fill="rgb(0, 0, 0)" fill-opacity="1.000000" />
<path d="M 174.892578 150.335938 L 174.892578 149.412109 L 181.729980 149.412109 L 181.729980 150.335938 Z " fill="rgb(0, 0, 0)" fill-opacity="1.000000" />
<path d="M 181.892578 150.335938 L 181.892578 149.412109 L 188.729980 149.412109 L 188.729980 150.335938 Z " fill="rgb(0, 0, 0)" fill-opacity="1.000000" />
<path d="M 188.892578 150.335938 L 188.892578 149.412109 L 195.729980 149.412109 L 195.729980 150.335938 Z " fill="rgb(0, 0, 0)" fill-opacity="1.000000" />
<path d="M 195.892578 150.335938 L 195.892578 149.412109 L 202.729980 149.412109 L 202.729980 150.335938 Z " fill="rgb(0, 0, 0)" fill-opacity="1.000000" />
<path d="M 202.892578 150.335938 L 202.892578 149.412109 L 209.729980 149.412109 L 209.729980 150.335938 Z " fill="rgb(0, 0, 0)" fill-opacity="1.000000" />
<path d="M 209.892578 150.335938 L 209.892578 149.412109 L 216.729980 149.412109 L 216.729980 150.335938 Z " fill="rgb(0, 0, 0)" fill-opacity="1.000000" />
<path d="M 216.892578 150.335938 L 216.892578 149.412109 L 223.729980 149.412109 L 223.729980 150.335938 Z " fill="rgb(0, 0, 0)" fill-opacity="1.000000" />
<path d="M 223.892578 150.335938 L 223.892578 149.412109 L 230.729980 149.412109 L 230.729980 150.335938 Z " fill="rgb(0, 0, 0)" fill-opacity="1.000000" />
<path d="M 230.892578 150.335938 L 230.892578 149.412109 L 237.729980 149.412109 L 237.729980 150.335938 Z " fill="rgb(0, 0, 0)" fill-opacity="1.000000" />
<path d="M 237.892578 150.335938 L 237.892578 149.412109 L 244.729980 149.412109 L 244.729980 150.335938 Z " fill="rgb(0, 0, 0)" fill-opacity="1.000000" />
<path d="M 244.892578 150.335938 L 244.892578 149.412109 L 251.729980 149.412109 L 251.729980 150.335938 Z " fill="rgb(0, 0, 0)" fill-opacity="1.000000" />
<path d="M 251.892578 150.335938 L 251.892578 149.412109 L 258.729980 149.412109 L 258.729980 150.335938 Z " fill="rgb(0, 0, 0)" fill-opacity="1.000000" />
<path d="M 258.892578 150.335938 L 258.892578 149.412109 L 261.878906 149.412109 L 261.878906 142.300781 L 262.738281 142.300781 L 262.738281 150.335938 Z " fill="rgb(0, 0, 0)" fill-opacity="1.000000" />
<path d="M 289.878906 156.319336 L 289.878906 142.300781 L 290.738281 142.300781 L 290.738281 156.319336 Z " fill="rgb(0, 0, 0)" fill-opacity="1.000000" />
<path d="M 100.878906 143.319336 L 100.878906 129.300781 L 101.738281 129.300781 L 101.738281 143.319336 Z " fill="rgb(0, 0, 0)" fill-opacity="1.000000" />
<path d="M 121.878906 143.319336 L 121.878906 129.300781 L 122.738281 129.300781 L 122.738281 143.319336 Z " fill="rgb(0, 0, 0)" fill-opacity="1.000000" />
<path d="M 149.878906 143.319336 L 149.878906 129.300781 L 150.738281 129.300781 L 150.738281 143.319336 Z " fill="rgb(0, 0, 0)" fill-opacity="1.000000" />
<path d="M 261.878906 143.319336 L 261.878906 129.300781 L 262.738281 129.300781 L 262.738281 143.319336 Z " fill="rgb(0, 0, 0)" fill-opacity="1.000000" />
<path d="M 289.878906 143.319336 L 289.878906 129.300781 L 290.738281 129.300781 L 290.738281 143.319336 Z " fill="rgb(0, 0, 0)" fill-opacity="1.000000" />
<path d="M 63.032227 127.418945 L 63.032227 120.866211 L 69.590332 124.142578 Z " fill="rgb(0, 0, 0)" fill-opacity="1.000000" />
<path d="M 72.878906 130.319336 L 72.878906 116.300781 L 73.738281 116.300781 L 73.738281 130.319336 Z " fill="rgb(0, 0, 0)" fill-opacity="1.000000" />
<path d="M 87.770508 123.976074 L 87.442871 123.976074 Q 86.578125 123.976074 86.140381 124.279541 Q 85.702637 124.583008 85.702637 125.184570 Q 85.702637 125.727051 86.030273 126.027832 Q 86.357910 126.328613 86.937988 126.328613 Q 87.754395 126.328613 88.221680 125.761963 Q 88.688965 125.195312 88.694336 124.196289 L 88.694336 123.976074 Z M 89.687988 123.567871 L 89.687988 127.000000 L 88.694336 127.000000 L 88.694336 126.108398 Q 88.377441 126.645508 87.896729 126.900635 Q 87.416016 127.155762 86.728516 127.155762 Q 85.810059 127.155762 85.262207 126.637451 Q 84.714355 126.119141 84.714355 125.249023 Q 84.714355 124.244629 85.388428 123.723633 Q 86.062500 123.202637 87.367676 123.202637 L 88.694336 123.202637 L 88.694336 123.046875 Q 88.688965 122.327148 88.329102 122.002197 Q 87.969238 121.677246 87.179688 121.677246 Q 86.674805 121.677246 86.159180 121.822266 Q 85.643555 121.967285 85.154785 122.246582 L 85.154785 121.258301 Q 85.702637 121.048828 86.204834 120.944092 Q 86.707031 120.839355 87.179688 120.839355 Q 87.926270 120.839355 88.455322 121.059570 Q 88.984375 121.279785 89.312012 121.720215 Q 89.516113 121.988770 89.602051 122.383545 Q 89.687988 122.778320 89.687988 123.567871 Z " fill="rgb(0, 0, 0)" fill-opacity="1.000000" />
<path d="M 100.878906 130.319336 L 100.878906 116.300781 L 101.738281 116.300781 L 101.738281 130.319336 Z " fill="rgb(0, 0, 0)" fill-opacity="1.000000" />
<path d="M 104.892578 124.335938 L 104.892578 123.412109 L 111.729980 123.412109 L 111.729980 124.335938 Z " fill="rgb(0, 0, 0)" fill-opacity="1.000000" />
<path d="M 111.892578 124.335938 L 111.892578 123.412109 L 118.729980 123.412109 L 118.729980 124.335938 Z " fill="rgb(0, 0, 0)" fill-opacity="1.000000" />
<path d="M 122.738281 124.335938 L 122.738281 130.319336 L 121.878906 130.319336 L 121.878906 124.335938 L 118.892578 124.335938 L 118.892578 123.412109 L 121.878906 123.412109 L 121.878906 116.300781 L 122.738281 116.300781 L 122.738281 123.412109 L 125.729980 123.412109 L 125.729980 124.335938 Z " fill="rgb(0, 0, 0)" fill-opacity="1.000000" />
<path d="M 125.892578 124.335938 L 125.892578 123.412109 L 132.729980 123.412109 L 132.729980 124.335938 Z " fill="rgb(0, 0, 0)" fill-opacity="1.000000" />
<path d="M 132.892578 124.335938 L 132.892578 123.412109 L 139.729980 123.412109 L 139.729980 124.335938 Z " fill="rgb(0, 0, 0)" fill-opacity="1.000000" />
<path d="M 140.032227 127.418945 L 140.032227 120.866211 L 146.590332 124.142578 Z " fill="rgb(0, 0, 0)" fill-opacity="1.000000" />
<path d="M 149.878906 130.319336 L 149.878906 116.300781 L 150.738281 116.300781 L 150.738281 130.319336 Z " fill="rgb(0, 0, 0)" fill-opacity="1.000000" />
<path d="M 190.251465 118.980957 L 194.972656 118.980957 L 194.972656 119.894043 L 191.341797 119.894043 L 191.341797 122.042480 L 194.634277 122.042480 L 194.634277 122.955566 L 191.341797 122.955566 L 191.341797 127.000000 L 190.251465 127.000000 Z " fill="rgb(0, 0, 0)" fill-opacity="1.000000" />
<path d="M 199.861816 124.824707 Q 199.861816 125.490723 200.106201 125.829102 Q 200.350586 126.167480 200.828613 126.167480 L 201.983398 126.167480 L 201.983398 127.000000 L 200.731934 127.000000 Q 199.845703 127.000000 199.359619 126.433350 Q 198.873535 125.866699 198.873535 124.824707 L 198.873535 119.383789 L 197.289062 119.383789 L 197.289062 118.610352 L 199.861816 118.610352 Z " fill="rgb(0, 0, 0)" fill-opacity="1.000000" />
<path d="M 204.697266 121.005859 L 207.227051 121.005859 L 207.227051 126.231934 L 209.187500 126.231934 L 209.187500 127.000000 L 204.278320 127.000000 L 204.278320 126.231934 L 206.238770 126.231934 L 206.238770 121.773926 L 204.697266 121.773926 Z M 206.238770 118.669434 L 207.227051 118.669434 L 207.227051 119.915527 L 206.238770 119.915527 Z " fill="rgb(0, 0, 0)" fill-opacity="1.000000" />
<path d="M 212.014160 126.242676 L 212.014160 129.288086 L 211.020508 129.288086 L 211.020508 120.984375 L 212.014160 120.984375 L 212.014160 121.752441 Q 212.261230 121.306641 212.672119 121.072998 Q 213.083008 120.839355 213.620117 120.839355 Q 214.710449 120.839355 215.330811 121.682617 Q 215.951172 122.525879 215.951172 124.019043 Q 215.951172 125.485352 215.328125 126.320557 Q 214.705078 127.155762 213.620117 127.155762 Q 213.072266 127.155762 212.661377 126.922119 Q 212.250488 126.688477 212.014160 126.242676 Z M 214.914551 123.997559 Q 214.914551 122.848145 214.552002 122.262695 Q 214.189453 121.677246 213.475098 121.677246 Q 212.755371 121.677246 212.384766 122.265381 Q 212.014160 122.853516 212.014160 123.997559 Q 212.014160 125.136230 212.384766 125.727051 Q 212.755371 126.317871 213.475098 126.317871 Q 214.189453 126.317871 214.552002 125.732422 Q 214.914551 125.146973 214.914551 123.997559 Z " fill="rgb(0, 0, 0)" fill-opacity="1.000000" />
<path d="M 220.297852 119.276367 L 220.297852 120.984375 L 222.542969 120.984375 L 222.542969 121.752441 L 220.297852 121.752441 L 220.297852 125.018066 Q 220.297852 125.684082 220.550293 125.947266 Q 220.802734 126.210449 221.431152 126.210449 L 222.542969 126.210449 L 222.542969 127.000000 L 221.334473 127.000000 Q 220.222656 127.000000 219.766113 126.554199 Q 219.309570 126.108398 219.309570 125.018066 L 219.309570 121.752441 L 217.703613 121.752441 L 217.703613 120.984375 L 219.309570 120.984375 L 219.309570 119.276367 Z " fill="rgb(0, 0, 0)" fill-opacity="1.000000" />
<path d="M 261.878906 130.319336 L 261.878906 116.300781 L 262.738281 116.300781 L 262.738281 130.319336 Z " fill="rgb(0, 0, 0)" fill-opacity="1.000000" />
<path d="M 265.892578 124.335938 L 265.892578 123.412109 L 272.729980 123.412109 L 272.729980 124.335938 Z " fill="rgb(0, 0, 0)" fill-opacity="1.000000" />
<path d="M 272.892578 124.335938 L 272.892578 123.412109 L 279.729980 123.412109 L 279.729980 124.335938 Z " fill="rgb(0, 0, 0)" fill-opacity="1.000000" />
<path d="M 279.892578 124.335938 L 279.892578 123.412109 L 286.729980 123.412109 L 286.729980 124.335938 Z " fill="rgb(0, 0, 0)" fill-opacity="1.000000" />
<path d="M 289.878906 130.319336 L 289.878906 124.335938 L 286.892578 124.335938 L 286.892578 123.412109 L 289.878906 123.412109 L 289.878906 116.300781 L 290.738281 116.300781 L 290.738281 130.319336 Z " fill="rgb(0, 0, 0)" fill-opacity="1.000000" />
<path d="M 72.878906 13.319336 L 72.878906 6.412109 L 76.729980 6.412109 L 76.729980 7.335938 L 73.738281 7.335938 L 73.738281 13.319336 Z " fill="rgb(0, 0, 0)" fill-opacity="1.000000" />
<path d="M 72.878906 26.319336 L 72.878906 12.300781 L 73.738281 12.300781 L 73.738281 26.319336 Z " fill="rgb(0, 0, 0)" fill-opacity="1.000000" />
<path d="M 72.878906 39.319336 L 72.878906 25.300781 L 73.738281 25.300781 L 73.738281 39.319336 Z " fill="rgb(0, 0, 0)" fill-opacity="1.000000" />
<path d="M 72.878906 52.319336 L 72.878906 38.300781 L 73.738281 38.300781 L 73.738281 52.319336 Z " fill="rgb(0, 0, 0)" fill-opacity="1.000000" />
<path d="M 72.878906 65.319336 L 72.878906 51.300781 L 73.738281 51.300781 L 73.738281 65.319336 Z " fill="rgb(0, 0, 0)" fill-opacity="1.000000" />
<path d="M 72.878906 78.319336 L 72.878906 64.300781 L 73.738281 64.300781 L 73.738281 78.319336 Z " fill="rgb(0, 0, 0)" fill-opacity="1.000000" />
<path d="M 72.878906 91.319336 L 72.878906 77.300781 L 73.738281 77.300781 L 73.738281 91.319336 Z " fill="rgb(0, 0, 0)" fill-opacity="1.000000" />
<path d="M 72.878906 104.319336 L 72.878906 90.300781 L 73.738281 90.300781 L 73.738281 104.319336 Z " fill="rgb(0, 0, 0)" fill-opacity="1.000000" />
<path d="M 72.878906 117.319336 L 72.878906 103.300781 L 73.738281 103.300781 L 73.738281 117.319336 Z " fill="rgb(0, 0, 0)" fill-opacity="1.000000" />
<path d="M 85.154785 40.980957 L 86.245117 40.980957 L 86.245117 48.086914 L 90.117676 48.086914 L 90.117676 49.000000 L 85.154785 49.000000 Z " fill="rgb(0, 0, 0)" fill-opacity="1.000000" />
<path d="M 87.308594 56.677246 Q 86.556641 56.677246 86.169922 57.262695 Q 85.783203 57.848145 85.783203 58.997559 Q 85.783203 60.141602 86.169922 60.729736 Q 86.556641 61.317871 87.308594 61.317871 Q 88.065918 61.317871 88.452637 60.729736 Q 88.839355 60.141602 88.839355 58.997559 Q 88.839355 57.848145 88.452637 57.262695 Q 88.065918 56.677246 87.308594 56.677246 Z M 87.308594 55.839355 Q 88.560059 55.839355 89.223389 56.650391 Q 89.886719 57.461426 89.886719 58.997559 Q 89.886719 60.539062 89.226074 61.347412 Q 88.565430 62.155762 87.308594 62.155762 Q 86.057129 62.155762 85.396484 61.347412 Q 84.735840 60.539062 84.735840 58.997559 Q 84.735840 57.461426 85.396484 56.650391 Q 86.057129 55.839355 87.308594 55.839355 Z " fill="rgb(0, 0, 0)" fill-opacity="1.000000" />
<path d="M 87.770508 71.976074 L 87.442871 71.976074 Q 86.578125 71.976074 86.140381 72.279541 Q 85.702637 72.583008 85.702637 73.184570 Q 85.702637 73.727051 86.030273 74.027832 Q 86.357910 74.328613 86.937988 74.328613 Q 87.754395 74.328613 88.221680 73.761963 Q 88.688965 73.195312 88.694336 72.196289 L 88.694336 71.976074 Z M 89.687988 71.567871 L 89.687988 75.000000 L 88.694336 75.000000 L 88.694336 74.108398 Q 88.377441 74.645508 87.896729 74.900635 Q 87.416016 75.155762 86.728516 75.155762 Q 85.810059 75.155762 85.262207 74.637451 Q 84.714355 74.119141 84.714355 73.249023 Q 84.714355 72.244629 85.388428 71.723633 Q 86.062500 71.202637 87.367676 71.202637 L 88.694336 71.202637 L 88.694336 71.046875 Q 88.688965 70.327148 88.329102 70.002197 Q 87.969238 69.677246 87.179688 69.677246 Q 86.674805 69.677246 86.159180 69.822266 Q 85.643555 69.967285 85.154785 70.246582 L 85.154785 69.258301 Q 85.702637 69.048828 86.204834 68.944092 Q 86.707031 68.839355 87.179688 68.839355 Q 87.926270 68.839355 88.455322 69.059570 Q 88.984375 69.279785 89.312012 69.720215 Q 89.516113 69.988770 89.602051 70.383545 Q 89.687988 70.778320 89.687988 71.567871 Z " fill="rgb(0, 0, 0)" fill-opacity="1.000000" />
<path d="M 88.608398 82.752441 L 88.608398 79.642578 L 89.596680 79.642578 L 89.596680 88.000000 L 88.608398 88.000000 L 88.608398 87.242676 Q 88.361328 87.688477 87.950439 87.922119 Q 87.539551 88.155762 87.002441 88.155762 Q 85.912109 88.155762 85.286377 87.309814 Q 84.660645 86.463867 84.660645 84.976074 Q 84.660645 83.509766 85.289062 82.674561 Q 85.917480 81.839355 87.002441 81.839355 Q 87.544922 81.839355 87.958496 82.072998 Q 88.372070 82.306641 88.608398 82.752441 Z M 85.702637 84.997559 Q 85.702637 86.146973 86.067871 86.732422 Q 86.433105 87.317871 87.147461 87.317871 Q 87.861816 87.317871 88.235107 86.727051 Q 88.608398 86.136230 88.608398 84.997559 Q 88.608398 83.853516 88.235107 83.265381 Q 87.861816 82.677246 87.147461 82.677246 Q 86.433105 82.677246 86.067871 83.262695 Q 85.702637 83.848145 85.702637 84.997559 Z " fill="rgb(0, 0, 0)" fill-opacity="1.000000" />
<path d="M 85.981934 109.955566 L 85.981934 113.108398 L 87.265625 113.108398 Q 88.210938 113.108398 88.613770 112.778076 Q 89.016602 112.447754 89.016602 111.690430 Q 89.016602 110.691406 88.592285 110.323486 Q 88.167969 109.955566 87.265625 109.955566 Z M 85.981934 106.872559 L 85.981934 109.074707 L 87.244141 109.074707 Q 88.028320 109.074707 88.380127 108.773926 Q 88.731934 108.473145 88.731934 108.016602 Q 88.731934 107.409668 88.385498 107.141113 Q 88.039062 106.872559 87.244141 106.872559 Z M 84.891602 105.980957 L 87.265625 105.980957 Q 88.495605 105.980957 89.161621 106.512695 Q 89.827637 107.044434 89.827637 108.016602 Q 89.827637 108.537598 89.475830 108.961914 Q 89.124023 109.386230 88.420410 109.493652 Q 89.209961 109.611816 89.658447 110.167725 Q 90.106934 110.723633 90.106934 111.797852 Q 90.106934 112.888184 89.392578 113.444092 Q 88.678223 114.000000 87.265625 114.000000 L 84.891602 114.000000 Z " fill="rgb(0, 0, 0)" fill-opacity="1.000000" />
<path d="M 100.878906 117.319336 L 100.878906 103.300781 L 101.738281 103.300781 L 101.738281 117.319336 Z " fill="rgb(0, 0, 0)" fill-opacity="1.000000" />
<path d="M 121.878906 117.319336 L 121.878906 103.300781 L 122.738281 103.300781 L 122.738281 117.319336 Z " fill="rgb(0, 0, 0)" fill-opacity="1.000000" />
<path d="M 149.878906 117.319336 L 149.878906 103.300781 L 150.738281 103.300781 L 150.738281 117.319336 Z " fill="rgb(0, 0, 0)" fill-opacity="1.000000" />
<path d="M 261.878906 117.319336 L 261.878906 103.300781 L 262.738281 103.300781 L 262.738281 117.319336 Z " fill="rgb(0, 0, 0)" fill-opacity="1.000000" />
<path d="M 289.878906 117.319336 L 289.878906 103.300781 L 290.738281 103.300781 L 290.738281 117.319336 Z " fill="rgb(0, 0, 0)" fill-opacity="1.000000" />
<path d="M 100.878906 104.319336 L 100.878906 90.300781 L 101.738281 90.300781 L 101.738281 104.319336 Z " fill="rgb(0, 0, 0)" fill-opacity="1.000000" />
<path d="M 121.878906 104.319336 L 121.878906 90.300781 L 122.738281 90.300781 L 122.738281 104.319336 Z " fill="rgb(0, 0, 0)" fill-opacity="1.000000" />
<path d="M 149.878906 104.319336 L 149.878906 97.412109 L 153.729980 97.412109 L 153.729980 98.335938 L 150.738281 98.335938 L 150.738281 104.319336 Z " fill="rgb(0, 0, 0)" fill-opacity="1.000000" />
<path d="M 153.892578 98.335938 L 153.892578 97.412109 L 160.729980 97.412109 L 160.729980 98.335938 Z " fill="rgb(0, 0, 0)" fill-opacity="1.000000" />
<path d="M 160.892578 98.335938 L 160.892578 97.412109 L 167.729980 97.412109 L 167.729980 98.335938 Z " fill="rgb(0, 0, 0)" fill-opacity="1.000000" />
<path d="M 167.892578 98.335938 L 167.892578 97.412109 L 174.729980 97.412109 L 174.729980 98.335938 Z " fill="rgb(0, 0, 0)" fill-opacity="1.000000" />
<path d="M 174.892578 98.335938 L 174.892578 97.412109 L 181.729980 97.412109 L 181.729980 98.335938 Z " fill="rgb(0, 0, 0)" fill-opacity="1.000000" />
<path d="M 181.892578 98.335938 L 181.892578 97.412109 L 188.729980 97.412109 L 188.729980 98.335938 Z " fill="rgb(0, 0, 0)" fill-opacity="1.000000" />
<path d="M 188.892578 98.335938 L 188.892578 97.412109 L 195.729980 97.412109 L 195.729980 98.335938 Z " fill="rgb(0, 0, 0)" fill-opacity="1.000000" />
<path d="M 195.892578 98.335938 L 195.892578 97.412109 L 202.729980 97.412109 L 202.729980 98.335938 Z " fill="rgb(0, 0, 0)" fill-opacity="1.000000" />
<path d="M 202.892578 98.335938 L 202.892578 97.412109 L 209.729980 97.412109 L 209.729980 98.335938 Z " fill="rgb(0, 0, 0)" fill-opacity="1.000000" />
<path d="M 209.892578 98.335938 L 209.892578 97.412109 L 216.729980 97.412109 L 216.729980 98.335938 Z " fill="rgb(0, 0, 0)" fill-opacity="1.000000" />
<path d="M 216.892578 98.335938 L 216.892578 97.412109 L 223.729980 97.412109 L 223.729980 98.335938 Z " fill="rgb(0, 0, 0)" fill-opacity="1.000000" />
<path d="M 223.892578 98.335938 L 223.892578 97.412109 L 230.729980 97.412109 L 230.729980 98.335938 Z " fill="rgb(0, 0, 0)" fill-opacity="1.000000" />
<path d="M 230.892578 98.335938 L 230.892578 97.412109 L 237.729980 97.412109 L 237.729980 98.335938 Z " fill="rgb(0, 0, 0)" fill-opacity="1.000000" />
<path d="M 237.892578 98.335938 L 237.892578 97.412109 L 244.729980 97.412109 L 244.729980 98.335938 Z " fill="rgb(0, 0, 0)" fill-opacity="1.000000" />
<path d="M 244.892578 98.335938 L 244.892578 97.412109 L 251.729980 97.412109 L 251.729980 98.335938 Z " fill="rgb(0, 0, 0)" fill-opacity="1.000000" />
<path d="M 251.892578 98.335938 L 251.892578 97.412109 L 258.729980 97.412109 L 258.729980 98.335938 Z " fill="rgb(0, 0, 0)" fill-opacity="1.000000" />
<path d="M 261.878906 104.319336 L 261.878906 98.335938 L 258.892578 98.335938 L 258.892578 97.412109 L 262.738281 97.412109 L 262.738281 104.319336 Z " fill="rgb(0, 0, 0)" fill-opacity="1.000000" />
<path d="M 289.878906 104.319336 L 289.878906 90.300781 L 290.738281 90.300781 L 290.738281 104.319336 Z " fill="rgb(0, 0, 0)" fill-opacity="1.000000" />
<path d="M 100.878906 91.319336 L 100.878906 77.300781 L 101.738281 77.300781 L 101.738281 91.319336 Z " fill="rgb(0, 0, 0)" fill-opacity="1.000000" />
<path d="M 121.878906 91.319336 L 121.878906 77.300781 L 122.738281 77.300781 L 122.738281 91.319336 Z " fill="rgb(0, 0, 0)" fill-opacity="1.000000" />
<path d="M 289.878906 91.319336 L 289.878906 77.300781 L 290.738281 77.300781 L 290.738281 91.319336 Z " fill="rgb(0, 0, 0)" fill-opacity="1.000000" />
<path d="M 331.143066 80.872559 L 331.143066 83.885742 L 332.399902 83.885742 Q 333.151855 83.885742 333.573486 83.488281 Q 333.995117 83.090820 333.995117 82.376465 Q 333.995117 81.662109 333.576172 81.267334 Q 333.157227 80.872559 332.399902 80.872559 Z M 330.058105 79.980957 L 332.399902 79.980957 Q 333.742676 79.980957 334.435547 80.590576 Q 335.128418 81.200195 335.128418 82.376465 Q 335.128418 83.563477 334.438232 84.170410 Q 333.748047 84.777344 332.399902 84.777344 L 331.143066 84.777344 L 331.143066 88.000000 L 330.058105 88.000000 Z " fill="rgb(0, 0, 0)" fill-opacity="1.000000" />
<path d="M 339.308594 82.677246 Q 338.556641 82.677246 338.169922 83.262695 Q 337.783203 83.848145 337.783203 84.997559 Q 337.783203 86.141602 338.169922 86.729736 Q 338.556641 87.317871 339.308594 87.317871 Q 340.065918 87.317871 340.452637 86.729736 Q 340.839355 86.141602 340.839355 84.997559 Q 340.839355 83.848145 340.452637 83.262695 Q 340.065918 82.677246 339.308594 82.677246 Z M 339.308594 81.839355 Q 340.560059 81.839355 341.223389 82.650391 Q 341.886719 83.461426 341.886719 84.997559 Q 341.886719 86.539062 341.226074 87.347412 Q 340.565430 88.155762 339.308594 88.155762 Q 338.057129 88.155762 337.396484 87.347412 Q 336.735840 86.539062 336.735840 84.997559 Q 336.735840 83.461426 337.396484 82.650391 Q 338.057129 81.839355 339.308594 81.839355 Z " fill="rgb(0, 0, 0)" fill-opacity="1.000000" />
<path d="M 348.226074 82.193848 L 348.226074 83.160645 Q 347.801758 82.913574 347.372070 82.790039 Q 346.942383 82.666504 346.496582 82.666504 Q 345.825195 82.666504 345.494873 82.884033 Q 345.164551 83.101562 345.164551 83.547363 Q 345.164551 83.950195 345.411621 84.148926 Q 345.658691 84.347656 346.641602 84.535645 L 347.039062 84.610840 Q 347.774902 84.750488 348.153564 85.169434 Q 348.532227 85.588379 348.532227 86.259766 Q 348.532227 87.151367 347.898438 87.653564 Q 347.264648 88.155762 346.136719 88.155762 Q 345.690918 88.155762 345.202148 88.061768 Q 344.713379 87.967773 344.144043 87.779785 L 344.144043 86.759277 Q 344.697266 87.043945 345.202148 87.186279 Q 345.707031 87.328613 346.158203 87.328613 Q 346.813477 87.328613 347.173340 87.062744 Q 347.533203 86.796875 347.533203 86.318848 Q 347.533203 85.631348 346.217285 85.368164 L 346.174316 85.357422 L 345.803711 85.282227 Q 344.949707 85.115723 344.557617 84.720947 Q 344.165527 84.326172 344.165527 83.644043 Q 344.165527 82.779297 344.750977 82.309326 Q 345.336426 81.839355 346.421387 81.839355 Q 346.904785 81.839355 347.350586 81.927979 Q 347.796387 82.016602 348.226074 82.193848 Z " fill="rgb(0, 0, 0)" fill-opacity="1.000000" />
<path d="M 353.297852 80.276367 L 353.297852 81.984375 L 355.542969 81.984375 L 355.542969 82.752441 L 353.297852 82.752441 L 353.297852 86.018066 Q 353.297852 86.684082 353.550293 86.947266 Q 353.802734 87.210449 354.431152 87.210449 L 355.542969 87.210449 L 355.542969 88.000000 L 354.334473 88.000000 Q 353.222656 88.000000 352.766113 87.554199 Q 352.309570 87.108398 352.309570 86.018066 L 352.309570 82.752441 L 350.703613 82.752441 L 350.703613 81.984375 L 352.309570 81.984375 L 352.309570 80.276367 Z " fill="rgb(0, 0, 0)" fill-opacity="1.000000" />
<path d="M 361.608398 84.943848 Q 361.608398 83.832031 361.245850 83.254639 Q 360.883301 82.677246 360.190430 82.677246 Q 359.465332 82.677246 359.083984 83.254639 Q 358.702637 83.832031 358.702637 84.943848 Q 358.702637 86.055664 359.086670 86.638428 Q 359.470703 87.221191 360.201172 87.221191 Q 360.883301 87.221191 361.245850 86.635742 Q 361.608398 86.050293 361.608398 84.943848 Z M 362.596680 87.613281 Q 362.596680 88.966797 361.957520 89.665039 Q 361.318359 90.363281 360.077637 90.363281 Q 359.669434 90.363281 359.223633 90.288086 Q 358.777832 90.212891 358.332031 90.067871 L 358.332031 89.090332 Q 358.858398 89.337402 359.288086 89.455566 Q 359.717773 89.573730 360.077637 89.573730 Q 360.877930 89.573730 361.243164 89.138672 Q 361.608398 88.703613 361.608398 87.758301 L 361.608398 87.715332 L 361.608398 87.043945 Q 361.372070 87.548828 360.963867 87.795898 Q 360.555664 88.042969 359.970215 88.042969 Q 358.917480 88.042969 358.289062 87.199707 Q 357.660645 86.356445 357.660645 84.943848 Q 357.660645 83.525879 358.289062 82.682617 Q 358.917480 81.839355 359.970215 81.839355 Q 360.550293 81.839355 360.953125 82.070312 Q 361.355957 82.301270 361.608398 82.784668 L 361.608398 82.005859 L 362.596680 82.005859 Z " fill="rgb(0, 0, 0)" fill-opacity="1.000000" />
<path d="M 370.203613 83.225098 Q 369.886719 82.978027 369.559082 82.865234 Q 369.231445 82.752441 368.839355 82.752441 Q 367.915527 82.752441 367.426758 83.332520 Q 366.937988 83.912598 366.937988 85.008301 L 366.937988 88.000000 L 365.944336 88.000000 L 365.944336 81.984375 L 366.937988 81.984375 L 366.937988 83.160645 Q 367.185059 82.521484 367.697998 82.180420 Q 368.210938 81.839355 368.914551 81.839355 Q 369.279785 81.839355 369.596680 81.930664 Q 369.913574 82.021973 370.203613 82.215332 Z " fill="rgb(0, 0, 0)" fill-opacity="1.000000" />
<path d="M 377.015625 84.498047 L 377.015625 84.981445 L 372.734863 84.981445 L 372.734863 85.013672 Q 372.691895 86.243652 373.204834 86.780762 Q 373.717773 87.317871 374.652344 87.317871 Q 375.125000 87.317871 375.640625 87.167480 Q 376.156250 87.017090 376.741699 86.710938 L 376.741699 87.693848 Q 376.177734 87.924805 375.654053 88.040283 Q 375.130371 88.155762 374.641602 88.155762 Q 373.239746 88.155762 372.450195 87.315186 Q 371.660645 86.474609 371.660645 84.997559 Q 371.660645 83.558105 372.434082 82.698730 Q 373.207520 81.839355 374.496582 81.839355 Q 375.645996 81.839355 376.309326 82.618164 Q 376.972656 83.396973 377.015625 84.498047 Z M 376.027344 84.208008 Q 375.962891 83.584961 375.573486 83.131104 Q 375.184082 82.677246 374.453613 82.677246 Q 373.739258 82.677246 373.277344 83.149902 Q 372.815430 83.622559 372.772461 84.213379 Z " fill="rgb(0, 0, 0)" fill-opacity="1.000000" />
<path d="M 383.226074 82.193848 L 383.226074 83.160645 Q 382.801758 82.913574 382.372070 82.790039 Q 381.942383 82.666504 381.496582 82.666504 Q 380.825195 82.666504 380.494873 82.884033 Q 380.164551 83.101562 380.164551 83.547363 Q 380.164551 83.950195 380.411621 84.148926 Q 380.658691 84.347656 381.641602 84.535645 L 382.039062 84.610840 Q 382.774902 84.750488 383.153564 85.169434 Q 383.532227 85.588379 383.532227 86.259766 Q 383.532227 87.151367 382.898438 87.653564 Q 382.264648 88.155762 381.136719 88.155762 Q 380.690918 88.155762 380.202148 88.061768 Q 379.713379 87.967773 379.144043 87.779785 L 379.144043 86.759277 Q 379.697266 87.043945 380.202148 87.186279 Q 380.707031 87.328613 381.158203 87.328613 Q 381.813477 87.328613 382.173340 87.062744 Q 382.533203 86.796875 382.533203 86.318848 Q 382.533203 85.631348 381.217285 85.368164 L 381.174316 85.357422 L 380.803711 85.282227 Q 379.949707 85.115723 379.557617 84.720947 Q 379.165527 84.326172 379.165527 83.644043 Q 379.165527 82.779297 379.750977 82.309326 Q 380.336426 81.839355 381.421387 81.839355 Q 381.904785 81.839355 382.350586 81.927979 Q 382.796387 82.016602 383.226074 82.193848 Z " fill="rgb(0, 0, 0)" fill-opacity="1.000000" />
<path d="M 100.878906 78.319336 L 100.878906 64.300781 L 101.738281 64.300781 L 101.738281 78.319336 Z " fill="rgb(0, 0, 0)" fill-opacity="1.000000" />
<path d="M 121.878906 78.319336 L 121.878906 64.300781 L 122.738281 64.300781 L 122.738281 78.319336 Z " fill="rgb(0, 0, 0)" fill-opacity="1.000000" />
<path d="M 149.878906 72.335938 L 149.878906 64.300781 L 150.738281 64.300781 L 150.738281 71.412109 L 153.729980 71.412109 L 153.729980 72.335938 Z " fill="rgb(0, 0, 0)" fill-opacity="1.000000" />
<path d="M 153.892578 72.335938 L 153.892578 71.412109 L 160.729980 71.412109 L 160.729980 72.335938 Z " fill="rgb(0, 0, 0)" fill-opacity="1.000000" />
<path d="M 160.892578 72.335938 L 160.892578 71.412109 L 167.729980 71.412109 L 167.729980 72.335938 Z " fill="rgb(0, 0, 0)" fill-opacity="1.000000" />
<path d="M 167.892578 72.335938 L 167.892578 71.412109 L 174.729980 71.412109 L 174.729980 72.335938 Z " fill="rgb(0, 0, 0)" fill-opacity="1.000000" />
<path d="M 174.892578 72.335938 L 174.892578 71.412109 L 181.729980 71.412109 L 181.729980 72.335938 Z " fill="rgb(0, 0, 0)" fill-opacity="1.000000" />
<path d="M 181.892578 72.335938 L 181.892578 71.412109 L 188.729980 71.412109 L 188.729980 72.335938 Z " fill="rgb(0, 0, 0)" fill-opacity="1.000000" />
<path d="M 188.892578 72.335938 L 188.892578 71.412109 L 195.729980 71.412109 L 195.729980 72.335938 Z " fill="rgb(0, 0, 0)" fill-opacity="1.000000" />
<path d="M 195.892578 72.335938 L 195.892578 71.412109 L 202.729980 71.412109 L 202.729980 72.335938 Z " fill="rgb(0, 0, 0)" fill-opacity="1.000000" />
<path d="M 202.892578 72.335938 L 202.892578 71.412109 L 209.729980 71.412109 L 209.729980 72.335938 Z " fill="rgb(0, 0, 0)" fill-opacity="1.000000" />
<path d="M 209.892578 72.335938 L 209.892578 71.412109 L 216.729980 71.412109 L 216.729980 72.335938 Z " fill="rgb(0, 0, 0)" fill-opacity="1.000000" />
<path d="M 216.892578 72.335938 L 216.892578 71.412109 L 223.729980 71.412109 L 223.729980 72.335938 Z " fill="rgb(0, 0, 0)" fill-opacity="1.000000" />
<path d="M 223.892578 72.335938 L 223.892578 71.412109 L 230.729980 71.412109 L 230.729980 72.335938 Z " fill="rgb(0, 0, 0)" fill-opacity="1.000000" />
<path d="M 230.892578 72.335938 L 230.892578 71.412109 L 237.729980 71.412109 L 237.729980 72.335938 Z " fill="rgb(0, 0, 0)" fill-opacity="1.000000" />
<path d="M 237.892578 72.335938 L 237.892578 71.412109 L 244.729980 71.412109 L 244.729980 72.335938 Z " fill="rgb(0, 0, 0)" fill-opacity="1.000000" />
<path d="M 244.892578 72.335938 L 244.892578 71.412109 L 251.729980 71.412109 L 251.729980 72.335938 Z " fill="rgb(0, 0, 0)" fill-opacity="1.000000" />
<path d="M 251.892578 72.335938 L 251.892578 71.412109 L 258.729980 71.412109 L 258.729980 72.335938 Z " fill="rgb(0, 0, 0)" fill-opacity="1.000000" />
<path d="M 258.892578 72.335938 L 258.892578 71.412109 L 261.878906 71.412109 L 261.878906 64.300781 L 262.738281 64.300781 L 262.738281 72.335938 Z " fill="rgb(0, 0, 0)" fill-opacity="1.000000" />
<path d="M 289.878906 78.319336 L 289.878906 64.300781 L 290.738281 64.300781 L 290.738281 78.319336 Z " fill="rgb(0, 0, 0)" fill-opacity="1.000000" />
<path d="M 324.562012 66.202148 L 326.071289 68.221680 L 325.244141 68.221680 L 323.498535 66.202148 Z " fill="rgb(0, 0, 0)" fill-opacity="1.000000" />
<path d="M 328.892578 72.335938 L 328.892578 71.412109 L 335.729980 71.412109 L 335.729980 72.335938 Z " fill="rgb(0, 0, 0)" fill-opacity="1.000000" />
<path d="M 335.892578 72.335938 L 335.892578 71.412109 L 342.729980 71.412109 L 342.729980 72.335938 Z " fill="rgb(0, 0, 0)" fill-opacity="1.000000" />
<path d="M 342.892578 72.335938 L 342.892578 71.412109 L 349.729980 71.412109 L 349.729980 72.335938 Z " fill="rgb(0, 0, 0)" fill-opacity="1.000000" />
<path d="M 349.892578 72.335938 L 349.892578 71.412109 L 356.729980 71.412109 L 356.729980 72.335938 Z " fill="rgb(0, 0, 0)" fill-opacity="1.000000" />
<path d="M 356.892578 72.335938 L 356.892578 71.412109 L 363.729980 71.412109 L 363.729980 72.335938 Z " fill="rgb(0, 0, 0)" fill-opacity="1.000000" />
<path d="M 363.892578 72.335938 L 363.892578 71.412109 L 370.729980 71.412109 L 370.729980 72.335938 Z " fill="rgb(0, 0, 0)" fill-opacity="1.000000" />
<path d="M 370.892578 72.335938 L 370.892578 71.412109 L 377.729980 71.412109 L 377.729980 72.335938 Z " fill="rgb(0, 0, 0)" fill-opacity="1.000000" />
<path d="M 381.985352 66.631836 L 381.985352 69.978027 L 380.782227 69.978027 L 380.782227 66.631836 Z " fill="rgb(0, 0, 0)" fill-opacity="1.000000" />
<path d="M 100.878906 65.319336 L 100.878906 51.300781 L 101.738281 51.300781 L 101.738281 65.319336 Z " fill="rgb(0, 0, 0)" fill-opacity="1.000000" />
<path d="M 121.878906 65.319336 L 121.878906 51.300781 L 122.738281 51.300781 L 122.738281 65.319336 Z " fill="rgb(0, 0, 0)" fill-opacity="1.000000" />
<path d="M 149.878906 65.319336 L 149.878906 51.300781 L 150.738281 51.300781 L 150.738281 65.319336 Z " fill="rgb(0, 0, 0)" fill-opacity="1.000000" />
<path d="M 261.878906 65.319336 L 261.878906 51.300781 L 262.738281 51.300781 L 262.738281 65.319336 Z " fill="rgb(0, 0, 0)" fill-opacity="1.000000" />
<path d="M 289.878906 65.319336 L 289.878906 51.300781 L 290.738281 51.300781 L 290.738281 65.319336 Z " fill="rgb(0, 0, 0)" fill-opacity="1.000000" />
<path d="M 319.592285 53.116211 Q 318.877930 54.340820 318.526123 55.557373 Q 318.174316 56.773926 318.174316 58.009277 Q 318.174316 59.239258 318.526123 60.458496 Q 318.877930 61.677734 319.592285 62.913086 L 318.732910 62.913086 Q 317.921875 61.634766 317.524414 60.423584 Q 317.126953 59.212402 317.126953 58.009277 Q 317.126953 56.811523 317.524414 55.597656 Q 317.921875 54.383789 318.732910 53.116211 Z " fill="rgb(0, 0, 0)" fill-opacity="1.000000" />
<path d="M 324.562012 53.202148 L 326.071289 55.221680 L 325.244141 55.221680 L 323.498535 53.202148 Z " fill="rgb(0, 0, 0)" fill-opacity="1.000000" />
<path d="M 328.892578 59.335938 L 328.892578 58.412109 L 335.729980 58.412109 L 335.729980 59.335938 Z " fill="rgb(0, 0, 0)" fill-opacity="1.000000" />
<path d="M 335.892578 59.335938 L 335.892578 58.412109 L 342.729980 58.412109 L 342.729980 59.335938 Z " fill="rgb(0, 0, 0)" fill-opacity="1.000000" />
<path d="M 342.892578 59.335938 L 342.892578 58.412109 L 349.729980 58.412109 L 349.729980 59.335938 Z " fill="rgb(0, 0, 0)" fill-opacity="1.000000" />
<path d="M 349.892578 59.335938 L 349.892578 58.412109 L 356.729980 58.412109 L 356.729980 59.335938 Z " fill="rgb(0, 0, 0)" fill-opacity="1.000000" />
<path d="M 356.892578 59.335938 L 356.892578 58.412109 L 363.729980 58.412109 L 363.729980 59.335938 Z " fill="rgb(0, 0, 0)" fill-opacity="1.000000" />
<path d="M 363.892578 59.335938 L 363.892578 58.412109 L 370.729980 58.412109 L 370.729980 59.335938 Z " fill="rgb(0, 0, 0)" fill-opacity="1.000000" />
<path d="M 370.892578 59.335938 L 370.892578 58.412109 L 377.729980 58.412109 L 377.729980 59.335938 Z " fill="rgb(0, 0, 0)" fill-opacity="1.000000" />
<path d="M 381.985352 53.631836 L 381.985352 56.978027 L 380.782227 56.978027 L 380.782227 53.631836 Z " fill="rgb(0, 0, 0)" fill-opacity="1.000000" />
<path d="M 386.869141 53.116211 L 387.728516 53.116211 Q 388.539551 54.383789 388.937012 55.597656 Q 389.334473 56.811523 389.334473 58.009277 Q 389.334473 59.217773 388.937012 60.431641 Q 388.539551 61.645508 387.728516 62.913086 L 386.869141 62.913086 Q 387.583496 61.666992 387.935303 60.447754 Q 388.287109 59.228516 388.287109 58.009277 Q 388.287109 56.784668 387.935303 55.565430 Q 387.583496 54.346191 386.869141 53.116211 Z " fill="rgb(0, 0, 0)" fill-opacity="1.000000" />
<path d="M 100.878906 52.319336 L 100.878906 38.300781 L 101.738281 38.300781 L 101.738281 52.319336 Z " fill="rgb(0, 0, 0)" fill-opacity="1.000000" />
<path d="M 121.878906 52.319336 L 121.878906 45.412109 L 125.729980 45.412109 L 125.729980 46.335938 L 122.738281 46.335938 L 122.738281 52.319336 Z " fill="rgb(0, 0, 0)" fill-opacity="1.000000" />
<path d="M 125.892578 46.335938 L 125.892578 45.412109 L 132.729980 45.412109 L 132.729980 46.335938 Z " fill="rgb(0, 0, 0)" fill-opacity="1.000000" />
<path d="M 132.892578 46.335938 L 132.892578 45.412109 L 139.729980 45.412109 L 139.729980 46.335938 Z " fill="rgb(0, 0, 0)" fill-opacity="1.000000" />
<path d="M 140.032227 49.418945 L 140.032227 42.866211 L 146.590332 46.142578 Z " fill="rgb(0, 0, 0)" fill-opacity="1.000000" />
<path d="M 149.878906 52.319336 L 149.878906 38.300781 L 150.738281 38.300781 L 150.738281 52.319336 Z " fill="rgb(0, 0, 0)" fill-opacity="1.000000" />
<path d="M 190.251465 40.980957 L 194.972656 40.980957 L 194.972656 41.894043 L 191.341797 41.894043 L 191.341797 44.042480 L 194.634277 44.042480 L 194.634277 44.955566 L 191.341797 44.955566 L 191.341797 49.000000 L 190.251465 49.000000 Z " fill="rgb(0, 0, 0)" fill-opacity="1.000000" />
<path d="M 199.861816 46.824707 Q 199.861816 47.490723 200.106201 47.829102 Q 200.350586 48.167480 200.828613 48.167480 L 201.983398 48.167480 L 201.983398 49.000000 L 200.731934 49.000000 Q 199.845703 49.000000 199.359619 48.433350 Q 198.873535 47.866699 198.873535 46.824707 L 198.873535 41.383789 L 197.289062 41.383789 L 197.289062 40.610352 L 199.861816 40.610352 Z " fill="rgb(0, 0, 0)" fill-opacity="1.000000" />
<path d="M 204.697266 43.005859 L 207.227051 43.005859 L 207.227051 48.231934 L 209.187500 48.231934 L 209.187500 49.000000 L 204.278320 49.000000 L 204.278320 48.231934 L 206.238770 48.231934 L 206.238770 43.773926 L 204.697266 43.773926 Z M 206.238770 40.669434 L 207.227051 40.669434 L 207.227051 41.915527 L 206.238770 41.915527 Z " fill="rgb(0, 0, 0)" fill-opacity="1.000000" />
<path d="M 212.014160 48.242676 L 212.014160 51.288086 L 211.020508 51.288086 L 211.020508 42.984375 L 212.014160 42.984375 L 212.014160 43.752441 Q 212.261230 43.306641 212.672119 43.072998 Q 213.083008 42.839355 213.620117 42.839355 Q 214.710449 42.839355 215.330811 43.682617 Q 215.951172 44.525879 215.951172 46.019043 Q 215.951172 47.485352 215.328125 48.320557 Q 214.705078 49.155762 213.620117 49.155762 Q 213.072266 49.155762 212.661377 48.922119 Q 212.250488 48.688477 212.014160 48.242676 Z M 214.914551 45.997559 Q 214.914551 44.848145 214.552002 44.262695 Q 214.189453 43.677246 213.475098 43.677246 Q 212.755371 43.677246 212.384766 44.265381 Q 212.014160 44.853516 212.014160 45.997559 Q 212.014160 47.136230 212.384766 47.727051 Q 212.755371 48.317871 213.475098 48.317871 Q 214.189453 48.317871 214.552002 47.732422 Q 214.914551 47.146973 214.914551 45.997559 Z " fill="rgb(0, 0, 0)" fill-opacity="1.000000" />
<path d="M 220.297852 41.276367 L 220.297852 42.984375 L 222.542969 42.984375 L 222.542969 43.752441 L 220.297852 43.752441 L 220.297852 47.018066 Q 220.297852 47.684082 220.550293 47.947266 Q 220.802734 48.210449 221.431152 48.210449 L 222.542969 48.210449 L 222.542969 49.000000 L 221.334473 49.000000 Q 220.222656 49.000000 219.766113 48.554199 Q 219.309570 48.108398 219.309570 47.018066 L 219.309570 43.752441 L 217.703613 43.752441 L 217.703613 42.984375 L 219.309570 42.984375 L 219.309570 41.276367 Z " fill="rgb(0, 0, 0)" fill-opacity="1.000000" />
<path d="M 261.878906 52.319336 L 261.878906 38.300781 L 262.738281 38.300781 L 262.738281 52.319336 Z " fill="rgb(0, 0, 0)" fill-opacity="1.000000" />
<path d="M 265.892578 46.335938 L 265.892578 45.412109 L 272.729980 45.412109 L 272.729980 46.335938 Z " fill="rgb(0, 0, 0)" fill-opacity="1.000000" />
<path d="M 272.892578 46.335938 L 272.892578 45.412109 L 279.729980 45.412109 L 279.729980 46.335938 Z " fill="rgb(0, 0, 0)" fill-opacity="1.000000" />
<path d="M 279.892578 46.335938 L 279.892578 45.412109 L 286.729980 45.412109 L 286.729980 46.335938 Z " fill="rgb(0, 0, 0)" fill-opacity="1.000000" />
<path d="M 289.878906 52.319336 L 289.878906 46.335938 L 286.892578 46.335938 L 286.892578 45.412109 L 293.729980 45.412109 L 293.729980 46.335938 L 290.738281 46.335938 L 290.738281 52.319336 Z " fill="rgb(0, 0, 0)" fill-opacity="1.000000" />
<path d="M 293.892578 46.335938 L 293.892578 45.412109 L 300.729980 45.412109 L 300.729980 46.335938 Z " fill="rgb(0, 0, 0)" fill-opacity="1.000000" />
<path d="M 300.892578 46.335938 L 300.892578 45.412109 L 307.729980 45.412109 L 307.729980 46.335938 Z " fill="rgb(0, 0, 0)" fill-opacity="1.000000" />
<path d="M 308.032227 49.418945 L 308.032227 42.866211 L 314.590332 46.142578 Z " fill="rgb(0, 0, 0)" fill-opacity="1.000000" />
<path d="M 319.592285 40.116211 Q 318.877930 41.340820 318.526123 42.557373 Q 318.174316 43.773926 318.174316 45.009277 Q 318.174316 46.239258 318.526123 47.458496 Q 318.877930 48.677734 319.592285 49.913086 L 318.732910 49.913086 Q 317.921875 48.634766 317.524414 47.423584 Q 317.126953 46.212402 317.126953 45.009277 Q 317.126953 43.811523 317.524414 42.597656 Q 317.921875 41.383789 318.732910 40.116211 Z " fill="rgb(0, 0, 0)" fill-opacity="1.000000" />
<path d="M 324.562012 40.202148 L 326.071289 42.221680 L 325.244141 42.221680 L 323.498535 40.202148 Z " fill="rgb(0, 0, 0)" fill-opacity="1.000000" />
<path d="M 328.892578 46.335938 L 328.892578 45.412109 L 335.729980 45.412109 L 335.729980 46.335938 Z " fill="rgb(0, 0, 0)" fill-opacity="1.000000" />
<path d="M 335.892578 46.335938 L 335.892578 45.412109 L 342.729980 45.412109 L 342.729980 46.335938 Z " fill="rgb(0, 0, 0)" fill-opacity="1.000000" />
<path d="M 342.892578 46.335938 L 342.892578 45.412109 L 349.729980 45.412109 L 349.729980 46.335938 Z " fill="rgb(0, 0, 0)" fill-opacity="1.000000" />
<path d="M 349.892578 46.335938 L 349.892578 45.412109 L 356.729980 45.412109 L 356.729980 46.335938 Z " fill="rgb(0, 0, 0)" fill-opacity="1.000000" />
<path d="M 356.892578 46.335938 L 356.892578 45.412109 L 363.729980 45.412109 L 363.729980 46.335938 Z " fill="rgb(0, 0, 0)" fill-opacity="1.000000" />
<path d="M 363.892578 46.335938 L 363.892578 45.412109 L 370.729980 45.412109 L 370.729980 46.335938 Z " fill="rgb(0, 0, 0)" fill-opacity="1.000000" />
<path d="M 370.892578 46.335938 L 370.892578 45.412109 L 377.729980 45.412109 L 377.729980 46.335938 Z " fill="rgb(0, 0, 0)" fill-opacity="1.000000" />
<path d="M 381.985352 40.631836 L 381.985352 43.978027 L 380.782227 43.978027 L 380.782227 40.631836 Z " fill="rgb(0, 0, 0)" fill-opacity="1.000000" />
<path d="M 386.869141 40.116211 L 387.728516 40.116211 Q 388.539551 41.383789 388.937012 42.597656 Q 389.334473 43.811523 389.334473 45.009277 Q 389.334473 46.217773 388.937012 47.431641 Q 388.539551 48.645508 387.728516 49.913086 L 386.869141 49.913086 Q 387.583496 48.666992 387.935303 47.447754 Q 388.287109 46.228516 388.287109 45.009277 Q 388.287109 43.784668 387.935303 42.565430 Q 387.583496 41.346191 386.869141 40.116211 Z " fill="rgb(0, 0, 0)" fill-opacity="1.000000" />
<path d="M 100.878906 26.319336 L 100.878906 12.300781 L 101.738281 12.300781 L 101.738281 26.319336 Z " fill="rgb(0, 0, 0)" fill-opacity="1.000000" />
<path d="M 100.878906 39.319336 L 100.878906 25.300781 L 101.738281 25.300781 L 101.738281 39.319336 Z " fill="rgb(0, 0, 0)" fill-opacity="1.000000" />
<path d="M 149.878906 26.319336 L 149.878906 19.412109 L 153.729980 19.412109 L 153.729980 20.335938 L 150.738281 20.335938 L 150.738281 26.319336 Z " fill="rgb(0, 0, 0)" fill-opacity="1.000000" />
<path d="M 149.878906 39.319336 L 149.878906 25.300781 L 150.738281 25.300781 L 150.738281 39.319336 Z " fill="rgb(0, 0, 0)" fill-opacity="1.000000" />
<path d="M 261.878906 39.319336 L 261.878906 25.300781 L 262.738281 25.300781 L 262.738281 39.319336 Z " fill="rgb(0, 0, 0)" fill-opacity="1.000000" />
<path d="M 319.592285 27.116211 Q 318.877930 28.340820 318.526123 29.557373 Q 318.174316 30.773926 318.174316 32.009277 Q 318.174316 33.239258 318.526123 34.458496 Q 318.877930 35.677734 319.592285 36.913086 L 318.732910 36.913086 Q 317.921875 35.634766 317.524414 34.423584 Q 317.126953 33.212402 317.126953 32.009277 Q 317.126953 30.811523 317.524414 29.597656 Q 317.921875 28.383789 318.732910 27.116211 Z " fill="rgb(0, 0, 0)" fill-opacity="1.000000" />
<path d="M 386.869141 27.116211 L 387.728516 27.116211 Q 388.539551 28.383789 388.937012 29.597656 Q 389.334473 30.811523 389.334473 32.009277 Q 389.334473 33.217773 388.937012 34.431641 Q 388.539551 35.645508 387.728516 36.913086 L 386.869141 36.913086 Q 387.583496 35.666992 387.935303 34.447754 Q 388.287109 33.228516 388.287109 32.009277 Q 388.287109 30.784668 387.935303 29.565430 Q 387.583496 28.346191 386.869141 27.116211 Z " fill="rgb(0, 0, 0)" fill-opacity="1.000000" />
<path d="M 153.892578 20.335938 L 153.892578 19.412109 L 160.729980 19.412109 L 160.729980 20.335938 Z " fill="rgb(0, 0, 0)" fill-opacity="1.000000" />
<path d="M 160.892578 20.335938 L 160.892578 19.412109 L 167.729980 19.412109 L 167.729980 20.335938 Z " fill="rgb(0, 0, 0)" fill-opacity="1.000000" />
<path d="M 167.892578 20.335938 L 167.892578 19.412109 L 174.729980 19.412109 L 174.729980 20.335938 Z " fill="rgb(0, 0, 0)" fill-opacity="1.000000" />
<path d="M 174.892578 20.335938 L 174.892578 19.412109 L 181.729980 19.412109 L 181.729980 20.335938 Z " fill="rgb(0, 0, 0)" fill-opacity="1.000000" />
<path d="M 181.892578 20.335938 L 181.892578 19.412109 L 188.729980 19.412109 L 188.729980 20.335938 Z " fill="rgb(0, 0, 0)" fill-opacity="1.000000" />
<path d="M 188.892578 20.335938 L 188.892578 19.412109 L 195.729980 19.412109 L 195.729980 20.335938 Z " fill="rgb(0, 0, 0)" fill-opacity="1.000000" />
<path d="M 195.892578 20.335938 L 195.892578 19.412109 L 202.729980 19.412109 L 202.729980 20.335938 Z " fill="rgb(0, 0, 0)" fill-opacity="1.000000" />
<path d="M 202.892578 20.335938 L 202.892578 19.412109 L 209.729980 19.412109 L 209.729980 20.335938 Z " fill="rgb(0, 0, 0)" fill-opacity="1.000000" />
<path d="M 209.892578 20.335938 L 209.892578 19.412109 L 216.729980 19.412109 L 216.729980 20.335938 Z " fill="rgb(0, 0, 0)" fill-opacity="1.000000" />
<path d="M 216.892578 20.335938 L 216.892578 19.412109 L 223.729980 19.412109 L 223.729980 20.335938 Z " fill="rgb(0, 0, 0)" fill-opacity="1.000000" />
<path d="M 223.892578 20.335938 L 223.892578 19.412109 L 230.729980 19.412109 L 230.729980 20.335938 Z " fill="rgb(0, 0, 0)" fill-opacity="1.000000" />
<path d="M 230.892578 20.335938 L 230.892578 19.412109 L 237.729980 19.412109 L 237.729980 20.335938 Z " fill="rgb(0, 0, 0)" fill-opacity="1.000000" />
<path d="M 237.892578 20.335938 L 237.892578 19.412109 L 244.729980 19.412109 L 244.729980 20.335938 Z " fill="rgb(0, 0, 0)" fill-opacity="1.000000" />
<path d="M 244.892578 20.335938 L 244.892578 19.412109 L 251.729980 19.412109 L 251.729980 20.335938 Z " fill="rgb(0, 0, 0)" fill-opacity="1.000000" />
<path d="M 251.892578 20.335938 L 251.892578 19.412109 L 258.729980 19.412109 L 258.729980 20.335938 Z " fill="rgb(0, 0, 0)" fill-opacity="1.000000" />
<path d="M 261.878906 26.319336 L 261.878906 20.335938 L 258.892578 20.335938 L 258.892578 19.412109 L 262.738281 19.412109 L 262.738281 26.319336 Z " fill="rgb(0, 0, 0)" fill-opacity="1.000000" />
<path d="M 324.089355 20.830078 L 325.979980 20.830078 L 325.979980 23.000000 L 324.089355 23.000000 Z " fill="rgb(0, 0, 0)" fill-opacity="1.000000" />
<path d="M 328.892578 20.335938 L 328.892578 19.412109 L 335.729980 19.412109 L 335.729980 20.335938 Z " fill="rgb(0, 0, 0)" fill-opacity="1.000000" />
<path d="M 335.892578 20.335938 L 335.892578 19.412109 L 342.729980 19.412109 L 342.729980 20.335938 Z " fill="rgb(0, 0, 0)" fill-opacity="1.000000" />
<path d="M 342.892578 20.335938 L 342.892578 19.412109 L 349.729980 19.412109 L 349.729980 20.335938 Z " fill="rgb(0, 0, 0)" fill-opacity="1.000000" />
<path d="M 349.892578 20.335938 L 349.892578 19.412109 L 356.729980 19.412109 L 356.729980 20.335938 Z " fill="rgb(0, 0, 0)" fill-opacity="1.000000" />
<path d="M 356.892578 20.335938 L 356.892578 19.412109 L 363.729980 19.412109 L 363.729980 20.335938 Z " fill="rgb(0, 0, 0)" fill-opacity="1.000000" />
<path d="M 363.892578 20.335938 L 363.892578 19.412109 L 370.729980 19.412109 L 370.729980 20.335938 Z " fill="rgb(0, 0, 0)" fill-opacity="1.000000" />
<path d="M 370.892578 20.335938 L 370.892578 19.412109 L 377.729980 19.412109 L 377.729980 20.335938 Z " fill="rgb(0, 0, 0)" fill-opacity="1.000000" />
<path d="M 380.089355 20.830078 L 381.979980 20.830078 L 381.979980 23.000000 L 380.089355 23.000000 Z " fill="rgb(0, 0, 0)" fill-opacity="1.000000" />
<path d="M 76.892578 7.335938 L 76.892578 6.412109 L 83.729980 6.412109 L 83.729980 7.335938 Z " fill="rgb(0, 0, 0)" fill-opacity="1.000000" />
<path d="M 83.892578 7.335938 L 83.892578 6.412109 L 90.729980 6.412109 L 90.729980 7.335938 Z " fill="rgb(0, 0, 0)" fill-opacity="1.000000" />
<path d="M 90.892578 7.335938 L 90.892578 6.412109 L 97.729980 6.412109 L 97.729980 7.335938 Z " fill="rgb(0, 0, 0)" fill-opacity="1.000000" />
<path d="M 100.878906 13.319336 L 100.878906 7.335938 L 97.892578 7.335938 L 97.892578 6.412109 L 101.738281 6.412109 L 101.738281 13.319336 Z " fill="rgb(0, 0, 0)" fill-opacity="1.000000" />
</svg>