<svg xmlns="http://www.w3.org/2000/svg" width="120" height="131" version="1.1"><path fill="#FFF" fill-opacity="1" d="M 2.878906 13.319336 L 2.878906 6.412109 L 6.729980 6.412109 L 6.729980 7.335938 L 3.738281 7.335938 L 3.738281 13.319336 Z"/><path fill="#FFF" fill-opacity="1" d="M 2.878906 26.319336 L 2.878906 12.300781 L 3.738281 12.300781 L 3.738281 26.319336 Z"/><path fill="#FFF" fill-opacity="1" d="M 2.878906 39.319336 L 2.878906 25.300781 L 3.738281 25.300781 L 3.738281 39.319336 Z"/><path fill="#FFF" fill-opacity="1" d="M 2.878906 52.319336 L 2.878906 38.300781 L 3.738281 38.300781 L 3.738281 52.319336 Z"/><path fill="#FFF" fill-opacity="1" d="M 2.878906 65.319336 L 2.878906 51.300781 L 3.738281 51.300781 L 3.738281 65.319336 Z"/><path fill="#FFF" fill-opacity="1" d="M 2.878906 78.319336 L 2.878906 64.300781 L 3.738281 64.300781 L 3.738281 78.319336 Z"/><path fill="#FFF" fill-opacity="1" d="M 2.878906 91.319336 L 2.878906 77.300781 L 3.738281 77.300781 L 3.738281 91.319336 Z"/><path fill="#FFF" fill-opacity="1" d="M 2.878906 104.319336 L 2.878906 90.300781 L 3.738281 90.300781 L 3.738281 104.319336 Z"/><path fill="#FFF" fill-opacity="1" d="M 2.878906 117.319336 L 2.878906 103.300781 L 3.738281 103.300781 L 3.738281 117.319336 Z"/><path fill="#FFF" fill-opacity="1" d="M 2.878906 124.335938 L 2.878906 116.300781 L 3.738281 116.300781 L 3.738281 123.412109 L 6.729980 123.412109 L 6.729980 124.335938 Z"/><path fill="#FFF" fill-opacity="1" d="M 6.892578 124.335938 L 6.892578 123.412109 L 13.729980 123.412109 L 13.729980 124.335938 Z"/><path fill="#FFF" fill-opacity="1" d="M 13.892578 124.335938 L 13.892578 123.412109 L 20.729980 123.412109 L 20.729980 124.335938 Z"/><path fill="#FFF" fill-opacity="1" d="M 20.892578 124.335938 L 20.892578 123.412109 L 27.729980 123.412109 L 27.729980 124.335938 Z"/><path fill="#FFF" fill-opacity="1" d="M 27.892578 124.335938 L 27.892578 123.412109 L 34.729980 123.412109 L 34.729980 124.335938 Z"/><path fill="#FFF" fill-opacity="1" d="M 34.892578 124.335938 L 34.892578 123.412109 L 41.729980 123.412109 L 41.729980 124.335938 Z"/><path fill="#FFF" fill-opacity="1" d="M 41.892578 124.335938 L 41.892578 123.412109 L 48.729980 123.412109 L 48.729980 124.335938 Z"/><path fill="#FFF" fill-opacity="1" d="M 48.892578 124.335938 L 48.892578 123.412109 L 55.729980 123.412109 L 55.729980 124.335938 Z"/><path fill="#FFF" fill-opacity="1" d="M 55.892578 124.335938 L 55.892578 123.412109 L 62.729980 123.412109 L 62.729980 124.335938 Z"/><path fill="#FFF" fill-opacity="1" d="M 62.892578 124.335938 L 62.892578 123.412109 L 69.729980 123.412109 L 69.729980 124.335938 Z"/><path fill="#FFF" fill-opacity="1" d="M 69.892578 124.335938 L 69.892578 123.412109 L 76.729980 123.412109 L 76.729980 124.335938 Z"/><path fill="#FFF" fill-opacity="1" d="M 76.892578 124.335938 L 76.892578 123.412109 L 83.729980 123.412109 L 83.729980 124.335938 Z"/><path fill="#FFF" fill-opacity="1" d="M 83.892578 124.335938 L 83.892578 123.412109 L 90.729980 123.412109 L 90.729980 124.335938 Z"/><path fill="#FFF" fill-opacity="1" d="M 90.892578 124.335938 L 90.892578 123.412109 L 97.729980 123.412109 L 97.729980 124.335938 Z"/><path fill="#FFF" fill-opacity="1" d="M 97.892578 124.335938 L 97.892578 123.412109 L 104.729980 123.412109 L 104.729980 124.335938 Z"/><path fill="#FFF" fill-opacity="1" d="M 104.892578 124.335938 L 104.892578 123.412109 L 111.729980 123.412109 L 111.729980 124.335938 Z"/><path fill="#FFF" fill-opacity="1" d="M 111.892578 124.335938 L 111.892578 123.412109 L 114.878906 123.412109 L 114.878906 116.300781 L 115.738281 116.300781 L 115.738281 124.335938 Z"/><path fill="#FFF" fill-opacity="1" d="M 25.592285 27.116211 Q 24.877930 28.340820 24.526123 29.557373 Q 24.174316 30.773926 24.174316 32.009277 Q 24.174316 33.239258 24.526123 34.458496 Q 24.877930 35.677734 25.592285 36.913086 L 24.732910 36.913086 Q 23.921875 35.634766 23.524414 34.423584 Q 23.126953 33.212402 23.126953 32.009277 Q 23.126953 30.811523 23.524414 29.597656 Q 23.921875 28.383789 24.732910 27.116211 Z"/><path fill="#FFF" fill-opacity="1" d="M 25.592285 40.116211 Q 24.877930 41.340820 24.526123 42.557373 Q 24.174316 43.773926 24.174316 45.009277 Q 24.174316 46.239258 24.526123 47.458496 Q 24.877930 48.677734 25.592285 49.913086 L 24.732910 49.913086 Q 23.921875 48.634766 23.524414 47.423584 Q 23.126953 46.212402 23.126953 45.009277 Q 23.126953 43.811523 23.524414 42.597656 Q 23.921875 41.383789 24.732910 40.116211 Z"/><path fill="#FFF" fill-opacity="1" d="M 25.592285 53.116211 Q 24.877930 54.340820 24.526123 55.557373 Q 24.174316 56.773926 24.174316 58.009277 Q 24.174316 59.239258 24.526123 60.458496 Q 24.877930 61.677734 25.592285 62.913086 L 24.732910 62.913086 Q 23.921875 61.634766 23.524414 60.423584 Q 23.126953 59.212402 23.126953 58.009277 Q 23.126953 56.811523 23.524414 55.597656 Q 23.921875 54.383789 24.732910 53.116211 Z"/><path fill="#FFF" fill-opacity="1" d="M 30.562012 66.202148 L 32.071289 68.221680 L 31.244141 68.221680 L 29.498535 66.202148 Z"/><path fill="#FFF" fill-opacity="1" d="M 47.435547 80.254883 L 47.435547 81.355957 Q 46.941406 81.039062 46.444580 80.877930 Q 45.947754 80.716797 45.442871 80.716797 Q 44.674805 80.716797 44.229004 81.073975 Q 43.783203 81.431152 43.783203 82.038086 Q 43.783203 82.569824 44.075928 82.849121 Q 44.368652 83.128418 45.168945 83.316406 L 45.738281 83.445312 Q 46.866211 83.708496 47.381836 84.272461 Q 47.897461 84.836426 47.897461 85.808594 Q 47.897461 86.952637 47.188477 87.554199 Q 46.479492 88.155762 45.125977 88.155762 Q 44.562012 88.155762 43.992676 88.034912 Q 43.423340 87.914062 42.848633 87.672363 L 42.848633 86.517578 Q 43.466309 86.909668 44.016846 87.092285 Q 44.567383 87.274902 45.125977 87.274902 Q 45.947754 87.274902 46.404297 86.906982 Q 46.860840 86.539062 46.860840 85.878418 Q 46.860840 85.276855 46.546631 84.959961 Q 46.232422 84.643066 45.453613 84.471191 L 44.873535 84.336914 Q 43.756348 84.084473 43.251465 83.574219 Q 42.746582 83.063965 42.746582 82.204590 Q 42.746582 81.130371 43.468994 80.483154 Q 44.191406 79.835938 45.389160 79.835938 Q 45.851074 79.835938 46.361328 79.940674 Q 46.871582 80.045410 47.435547 80.254883 Z"/><path fill="#FFF" fill-opacity="1" d="M 43.251465 105.980957 L 47.972656 105.980957 L 47.972656 106.894043 L 44.341797 106.894043 L 44.341797 109.042480 L 47.634277 109.042480 L 47.634277 109.955566 L 44.341797 109.955566 L 44.341797 114.000000 L 43.251465 114.000000 Z"/><path fill="#FFF" fill-opacity="1" d="M 52.861816 111.824707 Q 52.861816 112.490723 53.106201 112.829102 Q 53.350586 113.167480 53.828613 113.167480 L 54.983398 113.167480 L 54.983398 114.000000 L 53.731934 114.000000 Q 52.845703 114.000000 52.359619 113.433350 Q 51.873535 112.866699 51.873535 111.824707 L 51.873535 106.383789 L 50.289062 106.383789 L 50.289062 105.610352 L 52.861816 105.610352 Z"/><path fill="#FFF" fill-opacity="1" d="M 57.697266 108.005859 L 60.227051 108.005859 L 60.227051 113.231934 L 62.187500 113.231934 L 62.187500 114.000000 L 57.278320 114.000000 L 57.278320 113.231934 L 59.238770 113.231934 L 59.238770 108.773926 L 57.697266 108.773926 Z M 59.238770 105.669434 L 60.227051 105.669434 L 60.227051 106.915527 L 59.238770 106.915527 Z"/><path fill="#FFF" fill-opacity="1" d="M 65.014160 113.242676 L 65.014160 116.288086 L 64.020508 116.288086 L 64.020508 107.984375 L 65.014160 107.984375 L 65.014160 108.752441 Q 65.261230 108.306641 65.672119 108.072998 Q 66.083008 107.839355 66.620117 107.839355 Q 67.710449 107.839355 68.330811 108.682617 Q 68.951172 109.525879 68.951172 111.019043 Q 68.951172 112.485352 68.328125 113.320557 Q 67.705078 114.155762 66.620117 114.155762 Q 66.072266 114.155762 65.661377 113.922119 Q 65.250488 113.688477 65.014160 113.242676 Z M 67.914551 110.997559 Q 67.914551 109.848145 67.552002 109.262695 Q 67.189453 108.677246 66.475098 108.677246 Q 65.755371 108.677246 65.384766 109.265381 Q 65.014160 109.853516 65.014160 110.997559 Q 65.014160 112.136230 65.384766 112.727051 Q 65.755371 113.317871 66.475098 113.317871 Q 67.189453 113.317871 67.552002 112.732422 Q 67.914551 112.146973 67.914551 110.997559 Z"/><path fill="#FFF" fill-opacity="1" d="M 73.297852 106.276367 L 73.297852 107.984375 L 75.542969 107.984375 L 75.542969 108.752441 L 73.297852 108.752441 L 73.297852 112.018066 Q 73.297852 112.684082 73.550293 112.947266 Q 73.802734 113.210449 74.431152 113.210449 L 75.542969 113.210449 L 75.542969 114.000000 L 74.334473 114.000000 Q 73.222656 114.000000 72.766113 113.554199 Q 72.309570 113.108398 72.309570 112.018066 L 72.309570 108.752441 L 70.703613 108.752441 L 70.703613 107.984375 L 72.309570 107.984375 L 72.309570 106.276367 Z"/><path fill="#FFF" fill-opacity="1" d="M 114.878906 117.319336 L 114.878906 103.300781 L 115.738281 103.300781 L 115.738281 117.319336 Z"/><path fill="#FFF" fill-opacity="1" d="M 114.878906 104.319336 L 114.878906 90.300781 L 115.738281 90.300781 L 115.738281 104.319336 Z"/><path fill="#FFF" fill-opacity="1" d="M 52.518066 88.145020 Q 52.480469 88.145020 52.410645 88.150391 Q 52.340820 88.155762 52.297852 88.155762 Q 50.955078 88.155762 50.291748 87.124512 Q 49.628418 86.093262 49.628418 83.998535 Q 49.628418 81.898438 50.291748 80.867188 Q 50.955078 79.835938 52.308594 79.835938 Q 53.667480 79.835938 54.330811 80.867188 Q 54.994141 81.898438 54.994141 83.998535 Q 54.994141 85.577637 54.626221 86.541748 Q 54.258301 87.505859 53.511719 87.892578 L 54.585938 88.913086 L 53.774902 89.450195 Z M 53.860840 83.998535 Q 53.860840 82.231445 53.498291 81.474121 Q 53.135742 80.716797 52.308594 80.716797 Q 51.486816 80.716797 51.124268 81.474121 Q 50.761719 82.231445 50.761719 83.998535 Q 50.761719 85.760254 51.124268 86.517578 Q 51.486816 87.274902 52.308594 87.274902 Q 53.135742 87.274902 53.498291 86.520264 Q 53.860840 85.765625 53.860840 83.998535 Z"/><path fill="#FFF" fill-opacity="1" d="M 57.154785 79.980957 L 58.245117 79.980957 L 58.245117 87.086914 L 62.117676 87.086914 L 62.117676 88.000000 L 57.154785 88.000000 Z"/><path fill="#FFF" fill-opacity="1" d="M 64.697266 82.005859 L 67.227051 82.005859 L 67.227051 87.231934 L 69.187500 87.231934 L 69.187500 88.000000 L 64.278320 88.000000 L 64.278320 87.231934 L 66.238770 87.231934 L 66.238770 82.773926 L 64.697266 82.773926 Z M 66.238770 79.669434 L 67.227051 79.669434 L 67.227051 80.915527 L 66.238770 80.915527 Z"/><path fill="#FFF" fill-opacity="1" d="M 73.297852 80.276367 L 73.297852 81.984375 L 75.542969 81.984375 L 75.542969 82.752441 L 73.297852 82.752441 L 73.297852 86.018066 Q 73.297852 86.684082 73.550293 86.947266 Q 73.802734 87.210449 74.431152 87.210449 L 75.542969 87.210449 L 75.542969 88.000000 L 74.334473 88.000000 Q 73.222656 88.000000 72.766113 87.554199 Q 72.309570 87.108398 72.309570 86.018066 L 72.309570 82.752441 L 70.703613 82.752441 L 70.703613 81.984375 L 72.309570 81.984375 L 72.309570 80.276367 Z"/><path fill="#FFF" fill-opacity="1" d="M 83.015625 84.498047 L 83.015625 84.981445 L 78.734863 84.981445 L 78.734863 85.013672 Q 78.691895 86.243652 79.204834 86.780762 Q 79.717773 87.317871 80.652344 87.317871 Q 81.125000 87.317871 81.640625 87.167480 Q 82.156250 87.017090 82.741699 86.710938 L 82.741699 87.693848 Q 82.177734 87.924805 81.654053 88.040283 Q 81.130371 88.155762 80.641602 88.155762 Q 79.239746 88.155762 78.450195 87.315186 Q 77.660645 86.474609 77.660645 84.997559 Q 77.660645 83.558105 78.434082 82.698730 Q 79.207520 81.839355 80.496582 81.839355 Q 81.645996 81.839355 82.309326 82.618164 Q 82.972656 83.396973 83.015625 84.498047 Z M 82.027344 84.208008 Q 81.962891 83.584961 81.573486 83.131104 Q 81.184082 82.677246 80.453613 82.677246 Q 79.739258 82.677246 79.277344 83.149902 Q 78.815430 83.622559 78.772461 84.213379 Z"/><path fill="#FFF" fill-opacity="1" d="M 114.878906 91.319336 L 114.878906 77.300781 L 115.738281 77.300781 L 115.738281 91.319336 Z"/><path fill="#FFF" fill-opacity="1" d="M 34.892578 72.335938 L 34.892578 71.412109 L 41.729980 71.412109 L 41.729980 72.335938 Z"/><path fill="#FFF" fill-opacity="1" d="M 41.892578 72.335938 L 41.892578 71.412109 L 48.729980 71.412109 L 48.729980 72.335938 Z"/><path fill="#FFF" fill-opacity="1" d="M 48.892578 72.335938 L 48.892578 71.412109 L 55.729980 71.412109 L 55.729980 72.335938 Z"/><path fill="#FFF" fill-opacity="1" d="M 55.892578 72.335938 L 55.892578 71.412109 L 62.729980 71.412109 L 62.729980 72.335938 Z"/><path fill="#FFF" fill-opacity="1" d="M 62.892578 72.335938 L 62.892578 71.412109 L 69.729980 71.412109 L 69.729980 72.335938 Z"/><path fill="#FFF" fill-opacity="1" d="M 69.892578 72.335938 L 69.892578 71.412109 L 76.729980 71.412109 L 76.729980 72.335938 Z"/><path fill="#FFF" fill-opacity="1" d="M 76.892578 72.335938 L 76.892578 71.412109 L 83.729980 71.412109 L 83.729980 72.335938 Z"/><path fill="#FFF" fill-opacity="1" d="M 87.985352 66.631836 L 87.985352 69.978027 L 86.782227 69.978027 L 86.782227 66.631836 Z"/><path fill="#FFF" fill-opacity="1" d="M 114.878906 78.319336 L 114.878906 64.300781 L 115.738281 64.300781 L 115.738281 78.319336 Z"/><path fill="#FFF" fill-opacity="1" d="M 30.562012 40.202148 L 32.071289 42.221680 L 31.244141 42.221680 L 29.498535 40.202148 Z"/><path fill="#FFF" fill-opacity="1" d="M 30.562012 53.202148 L 32.071289 55.221680 L 31.244141 55.221680 L 29.498535 53.202148 Z"/><path fill="#FFF" fill-opacity="1" d="M 34.892578 46.335938 L 34.892578 45.412109 L 41.729980 45.412109 L 41.729980 46.335938 Z"/><path fill="#FFF" fill-opacity="1" d="M 34.892578 59.335938 L 34.892578 58.412109 L 41.729980 58.412109 L 41.729980 59.335938 Z"/><path fill="#FFF" fill-opacity="1" d="M 41.892578 46.335938 L 41.892578 45.412109 L 48.729980 45.412109 L 48.729980 46.335938 Z"/><path fill="#FFF" fill-opacity="1" d="M 41.892578 59.335938 L 41.892578 58.412109 L 48.729980 58.412109 L 48.729980 59.335938 Z"/><path fill="#FFF" fill-opacity="1" d="M 48.892578 46.335938 L 48.892578 45.412109 L 55.729980 45.412109 L 55.729980 46.335938 Z"/><path fill="#FFF" fill-opacity="1" d="M 48.892578 59.335938 L 48.892578 58.412109 L 55.729980 58.412109 L 55.729980 59.335938 Z"/><path fill="#FFF" fill-opacity="1" d="M 55.892578 46.335938 L 55.892578 45.412109 L 62.729980 45.412109 L 62.729980 46.335938 Z"/><path fill="#FFF" fill-opacity="1" d="M 55.892578 59.335938 L 55.892578 58.412109 L 62.729980 58.412109 L 62.729980 59.335938 Z"/><path fill="#FFF" fill-opacity="1" d="M 62.892578 46.335938 L 62.892578 45.412109 L 69.729980 45.412109 L 69.729980 46.335938 Z"/><path fill="#FFF" fill-opacity="1" d="M 62.892578 59.335938 L 62.892578 58.412109 L 69.729980 58.412109 L 69.729980 59.335938 Z"/><path fill="#FFF" fill-opacity="1" d="M 69.892578 46.335938 L 69.892578 45.412109 L 76.729980 45.412109 L 76.729980 46.335938 Z"/><path fill="#FFF" fill-opacity="1" d="M 69.892578 59.335938 L 69.892578 58.412109 L 76.729980 58.412109 L 76.729980 59.335938 Z"/><path fill="#FFF" fill-opacity="1" d="M 76.892578 46.335938 L 76.892578 45.412109 L 83.729980 45.412109 L 83.729980 46.335938 Z"/><path fill="#FFF" fill-opacity="1" d="M 76.892578 59.335938 L 76.892578 58.412109 L 83.729980 58.412109 L 83.729980 59.335938 Z"/><path fill="#FFF" fill-opacity="1" d="M 87.985352 40.631836 L 87.985352 43.978027 L 86.782227 43.978027 L 86.782227 40.631836 Z"/><path fill="#FFF" fill-opacity="1" d="M 87.985352 53.631836 L 87.985352 56.978027 L 86.782227 56.978027 L 86.782227 53.631836 Z"/><path fill="#FFF" fill-opacity="1" d="M 92.869141 40.116211 L 93.728516 40.116211 Q 94.539551 41.383789 94.937012 42.597656 Q 95.334473 43.811523 95.334473 45.009277 Q 95.334473 46.217773 94.937012 47.431641 Q 94.539551 48.645508 93.728516 49.913086 L 92.869141 49.913086 Q 93.583496 48.666992 93.935303 47.447754 Q 94.287109 46.228516 94.287109 45.009277 Q 94.287109 43.784668 93.935303 42.565430 Q 93.583496 41.346191 92.869141 40.116211 Z"/><path fill="#FFF" fill-opacity="1" d="M 92.869141 53.116211 L 93.728516 53.116211 Q 94.539551 54.383789 94.937012 55.597656 Q 95.334473 56.811523 95.334473 58.009277 Q 95.334473 59.217773 94.937012 60.431641 Q 94.539551 61.645508 93.728516 62.913086 L 92.869141 62.913086 Q 93.583496 61.666992 93.935303 60.447754 Q 94.287109 59.228516 94.287109 58.009277 Q 94.287109 56.784668 93.935303 55.565430 Q 93.583496 54.346191 92.869141 53.116211 Z"/><path fill="#FFF" fill-opacity="1" d="M 114.878906 52.319336 L 114.878906 38.300781 L 115.738281 38.300781 L 115.738281 52.319336 Z"/><path fill="#FFF" fill-opacity="1" d="M 114.878906 65.319336 L 114.878906 51.300781 L 115.738281 51.300781 L 115.738281 65.319336 Z"/><path fill="#FFF" fill-opacity="1" d="M 92.869141 27.116211 L 93.728516 27.116211 Q 94.539551 28.383789 94.937012 29.597656 Q 95.334473 30.811523 95.334473 32.009277 Q 95.334473 33.217773 94.937012 34.431641 Q 94.539551 35.645508 93.728516 36.913086 L 92.869141 36.913086 Q 93.583496 35.666992 93.935303 34.447754 Q 94.287109 33.228516 94.287109 32.009277 Q 94.287109 30.784668 93.935303 29.565430 Q 93.583496 28.346191 92.869141 27.116211 Z"/><path fill="#FFF" fill-opacity="1" d="M 114.878906 39.319336 L 114.878906 25.300781 L 115.738281 25.300781 L 115.738281 39.319336 Z"/><path fill="#FFF" fill-opacity="1" d="M 30.089355 20.830078 L 31.979980 20.830078 L 31.979980 23.000000 L 30.089355 23.000000 Z"/><path fill="#FFF" fill-opacity="1" d="M 34.892578 20.335938 L 34.892578 19.412109 L 41.729980 19.412109 L 41.729980 20.335938 Z"/><path fill="#FFF" fill-opacity="1" d="M 41.892578 20.335938 L 41.892578 19.412109 L 48.729980 19.412109 L 48.729980 20.335938 Z"/><path fill="#FFF" fill-opacity="1" d="M 48.892578 20.335938 L 48.892578 19.412109 L 55.729980 19.412109 L 55.729980 20.335938 Z"/><path fill="#FFF" fill-opacity="1" d="M 55.892578 20.335938 L 55.892578 19.412109 L 62.729980 19.412109 L 62.729980 20.335938 Z"/><path fill="#FFF" fill-opacity="1" d="M 62.892578 20.335938 L 62.892578 19.412109 L 69.729980 19.412109 L 69.729980 20.335938 Z"/><path fill="#FFF" fill-opacity="1" d="M 69.892578 20.335938 L 69.892578 19.412109 L 76.729980 19.412109 L 76.729980 20.335938 Z"/><path fill="#FFF" fill-opacity="1" d="M 76.892578 20.335938 L 76.892578 19.412109 L 83.729980 19.412109 L 83.729980 20.335938 Z"/><path fill="#FFF" fill-opacity="1" d="M 86.089355 20.830078 L 87.979980 20.830078 L 87.979980 23.000000 L 86.089355 23.000000 Z"/><path fill="#FFF" fill-opacity="1" d="M 114.878906 26.319336 L 114.878906 12.300781 L 115.738281 12.300781 L 115.738281 26.319336 Z"/><path fill="#FFF" fill-opacity="1" d="M 6.892578 7.335938 L 6.892578 6.412109 L 13.729980 6.412109 L 13.729980 7.335938 Z"/><path fill="#FFF" fill-opacity="1" d="M 13.892578 7.335938 L 13.892578 6.412109 L 20.729980 6.412109 L 20.729980 7.335938 Z"/><path fill="#FFF" fill-opacity="1" d="M 20.892578 7.335938 L 20.892578 6.412109 L 27.729980 6.412109 L 27.729980 7.335938 Z"/><path fill="#FFF" fill-opacity="1" d="M 27.892578 7.335938 L 27.892578 6.412109 L 34.729980 6.412109 L 34.729980 7.335938 Z"/><path fill="#FFF" fill-opacity="1" d="M 34.892578 7.335938 L 34.892578 6.412109 L 41.729980 6.412109 L 41.729980 7.335938 Z"/><path fill="#FFF" fill-opacity="1" d="M 41.892578 7.335938 L 41.892578 6.412109 L 48.729980 6.412109 L 48.729980 7.335938 Z"/><path fill="#FFF" fill-opacity="1" d="M 48.892578 7.335938 L 48.892578 6.412109 L 55.729980 6.412109 L 55.729980 7.335938 Z"/><path fill="#FFF" fill-opacity="1" d="M 55.892578 7.335938 L 55.892578 6.412109 L 62.729980 6.412109 L 62.729980 7.335938 Z"/><path fill="#FFF" fill-opacity="1" d="M 62.892578 7.335938 L 62.892578 6.412109 L 69.729980 6.412109 L 69.729980 7.335938 Z"/><path fill="#FFF" fill-opacity="1" d="M 69.892578 7.335938 L 69.892578 6.412109 L 76.729980 6.412109 L 76.729980 7.335938 Z"/><path fill="#FFF" fill-opacity="1" d="M 76.892578 7.335938 L 76.892578 6.412109 L 83.729980 6.412109 L 83.729980 7.335938 Z"/><path fill="#FFF" fill-opacity="1" d="M 83.892578 7.335938 L 83.892578 6.412109 L 90.729980 6.412109 L 90.729980 7.335938 Z"/><path fill="#FFF" fill-opacity="1" d="M 90.892578 7.335938 L 90.892578 6.412109 L 97.729980 6.412109 L 97.729980 7.335938 Z"/><path fill="#FFF" fill-opacity="1" d="M 97.892578 7.335938 L 97.892578 6.412109 L 104.729980 6.412109 L 104.729980 7.335938 Z"/><path fill="#FFF" fill-opacity="1" d="M 104.892578 7.335938 L 104.892578 6.412109 L 111.729980 6.412109 L 111.729980 7.335938 Z"/><path fill="#FFF" fill-opacity="1" d="M 114.878906 13.319336 L 114.878906 7.335938 L 111.892578 7.335938 L 111.892578 6.412109 L 115.738281 6.412109 L 115.738281 13.319336 Z"/></svg>