<svg width="275" height="96" viewBox="0 0 275 96" fill="none" xmlns="http://www.w3.org/2000/svg">
<g clip-path="url(#clip0_12_5)">
<path fill-rule="evenodd" clip-rule="evenodd" d="M13.2143 9.01052L10.9418 0.509613L3.28253 1.43545L0 1.85629L3.11419 13.5556L18.0118 69.0218L25.166 95.6187L35.6028 94.2721H36.1078L28.9536 67.591L25.166 53.6192L23.5669 47.6433L22.3044 42.7616L20.0318 34.2607L18.3485 28.2848L17.086 23.4873L28.0277 22.0565L47.1337 19.6998L49.8271 19.3631L51.5946 19.1106H51.6788H51.7629H51.8471L51.9313 19.0264H52.0154H52.0996H52.1838H52.2679H52.3521H52.4363H52.5204H52.6046H52.6888H52.7729H52.8571H52.9413C53.0254 19.0264 53.1938 19.0264 53.2779 19.0264H53.3621H53.4463H53.5304H53.6146H53.6988L53.7829 19.1106C53.8671 19.1106 53.9513 19.1106 54.0354 19.1106C54.1196 19.1948 54.2038 19.1948 54.2879 19.2789C54.2879 19.2789 54.3721 19.2789 54.4563 19.3631C54.5405 19.3631 54.6246 19.4473 54.7088 19.5314L54.793 19.6156H54.8771L54.9613 19.6998L55.0455 19.7839L55.1296 19.8681L55.2138 19.9523L55.298 20.0364L55.3821 20.1206L55.4663 20.2048L55.5505 20.2889V20.3731L55.6346 20.4573L55.7188 20.5414V20.6256L55.803 20.7098V20.7939L55.8871 20.8781L56.2238 21.4673L56.6446 22.0565L56.7288 22.1406V22.2248H56.813V22.309L56.8971 22.3931V22.4773H56.9813V22.5615H57.0655V22.6456H57.1496V22.7298H57.2338V22.814H57.318V22.8981H57.4021L57.4863 22.9823H57.5705H57.6546V23.0665H57.7388H57.823L57.9071 23.1506H57.9913H58.0755H58.1596H58.2438H58.328C58.328 23.1506 58.4121 23.1506 58.4963 23.1506H58.5805H58.6647H58.7488H58.833H58.9172H59.0013H59.0855L74.4039 21.2148H74.4881L76.0873 27.1907L77.3498 31.9882L63.9672 33.7557C62.0313 34.0082 60.7688 33.4191 59.6747 31.8199L59.0013 30.6415C58.833 30.389 58.5805 30.1365 58.328 29.9682V29.884H58.2438H58.1596V29.7999H58.0755H57.9913V29.7157H57.9071H57.823H57.7388L57.6546 29.6315H57.5705H57.4863H57.4021H57.318H57.2338H57.1496H57.0655H56.9813H56.8971H56.813H56.7288H56.6446L56.5605 29.7157H56.4763L43.767 31.3149L30.9736 32.914L33.2461 41.415L43.0095 40.1524L46.0395 39.8158L55.0455 38.6374H55.4663L56.7288 38.4691C57.1496 38.3849 57.5705 38.3849 57.9913 38.3008H58.0755C59.1697 38.3008 60.0955 38.6374 61.0213 40.0683L61.4422 40.8258L61.7788 41.415C62.4522 42.3408 63.0414 42.6775 64.3039 42.5091L79.6223 40.5733L81.2215 46.5492L82.5682 51.3467L69.1856 53.03C67.1656 53.2825 65.9872 52.7775 64.893 51.0942L64.2197 50C63.9672 49.7475 63.7989 49.495 63.6305 49.3267H63.5464V49.2425H63.4622C62.9572 48.9058 62.368 48.9058 61.6947 48.99L48.9854 50.6734L36.1078 52.2725L39.3062 64.1401L51.9313 62.541H52.1838L57.0655 61.9518L64.388 61.0259L64.893 60.9418C66.3239 60.7734 66.8289 61.6993 66.9131 62.2043L67.2497 63.3826V63.4668V63.551H67.3339V63.6351V63.7193V63.8035H67.4181V63.8876V63.9718L67.5022 64.056V64.1401L67.5864 64.2243V64.3085H67.6706V64.3926C68.1756 65.066 68.9331 65.4026 70.5322 65.2343L84.7565 63.3826C85.0932 63.3826 85.4299 63.2985 85.7665 63.2143H85.8507L85.9349 63.1301H86.1874L86.2715 63.046L86.524 62.9618H86.6082L86.8607 62.8776H86.9449L87.1132 62.7935H87.1974C87.8707 62.541 88.4599 62.2885 88.9649 61.9518L89.2174 61.7835H89.3016L89.4699 61.6151H89.5541V61.5309H89.6382H89.7224V61.4468H89.8066V61.3626H89.8907L89.9749 61.2784H90.0591V61.1943H90.1432V61.1101H90.2274V61.0259H90.3116L90.3957 60.9418H90.4799V60.8576H90.5641V60.7734H90.6482V60.6893H90.7324V60.6051H90.8166V60.5209H90.9008V60.4368H90.9849V60.3526H91.0691V60.2684H91.1533V60.1843H91.2374V60.1001H91.3216V60.0159H91.4058V59.9318H91.4899V59.8476V59.7634H91.5741V59.6793L91.6583 59.5951H91.7424V59.5109L91.8266 59.4268V59.3426H91.9108V59.2584H91.9949V59.1743V59.0901H92.0791V59.0059H92.1633V58.9218L92.2474 58.7534L92.4158 58.5009L92.4999 58.3326V58.2484H92.5841V58.1643V58.0801H92.6683V57.9959C92.7524 57.8276 92.8366 57.6593 92.9208 57.4909V57.4067L93.0049 57.2384V57.1542L93.0891 56.9859V56.9017L93.1733 56.7334V56.6492L93.2574 56.4809V56.3967L93.3416 56.3126V56.2284V56.1442V55.9759L93.4258 55.8917V55.8076V55.6392H93.5099V55.5551V55.3867V55.3026V55.2184L93.5941 55.1342V55.0501V54.8817V54.6292L93.6783 54.5451V54.3767V54.2926C93.6783 54.1242 93.6783 53.9559 93.6783 53.8717V53.7876V53.5351V53.2825L93.7624 53.03L93.6783 52.7775V52.6934V52.6092V52.4409V52.1884V51.9359V51.8517V51.6834V51.5992L93.5941 51.4309V51.3467C93.5941 51.1784 93.5941 51.01 93.5941 50.8417L93.5099 50.5892V50.2525L93.4258 50C93.3416 49.5792 93.2574 49.0742 93.0891 48.6533L90.5641 39.1424L89.7224 36.1124L82.2315 7.91634L71.2056 9.26302L68.0072 9.68386L64.0514 10.1889L55.803 11.1989L55.7188 11.283H55.6346H55.5505H55.4663H55.3821H55.298H55.2138C55.1296 11.283 55.0455 11.283 54.8771 11.283C54.793 11.283 54.6246 11.1989 54.4563 11.1989C54.2038 11.1147 54.0354 11.0305 53.7829 10.9464V10.8622C53.6146 10.778 53.4463 10.6939 53.3621 10.5255H53.2779L53.1938 10.4414C53.1938 10.4414 53.1938 10.3572 53.1096 10.3572V10.273L53.0254 10.1889V10.1047V10.0205H52.9413V9.93636V9.85219H52.8571V9.76802V9.68386L51.9313 6.40133V6.31716V6.23299L51.8471 6.14883V6.06466V5.98049L51.7629 5.89632L51.6788 5.81216V5.72799L51.5946 5.64382V5.55965H51.5104L51.4263 5.47549L51.3421 5.39132L51.2579 5.30715H51.1738V5.22299H51.0896L51.0054 5.13882H50.9213L50.8371 5.05465H50.7529H50.6688C50.5846 4.97048 50.5004 4.97048 50.4162 4.97048H50.3321H50.2479L50.1637 4.88632H49.9954H49.9112H49.8271H49.7429H49.6587H49.5746L49.4904 4.97048H49.4062H48.9854L24.3244 8.08468H24.2402L13.3826 9.43135L13.2143 9.01052Z" fill="#7C3AED"/>
<path fill-rule="evenodd" clip-rule="evenodd" d="M223.296 54.5451C216.394 54.5451 211.176 49.5792 211.176 41.8358C211.176 34.0082 216.394 29.0423 223.296 29.0423C230.114 29.0423 235.332 34.0082 235.332 41.8358C235.332 49.5792 230.114 54.5451 223.296 54.5451ZM262.518 29.379H274.47V23.4031V21.7198H262.518V12.4614H253.007V48.485C253.007 54.6292 257.047 59.7634 262.518 61.5309C263.865 61.9518 265.211 62.2043 266.726 62.2043H274.47V52.6092H266.726C264.454 52.6092 262.518 50.7575 262.518 48.485V29.379ZM181.717 62.2043H191.312V21.4673H181.717V51.8517V62.2043ZM125.157 18.6898H154.11V9.09468H126.756H125.157H117.498H115.646V48.7375V62.2043H125.157V39.7316H149.313V30.1365H125.578H125.157V18.6898ZM161.77 62.2043H171.365V9.09468H161.77V48.7375V62.2043ZM224.39 20.9623C218.751 20.9623 214.038 22.8981 210.839 26.7698V21.4673H201.749V77.0177H211.344V57.2384C214.627 60.9418 219.172 62.7093 224.39 62.7093C236.258 62.7093 245.011 54.4609 245.011 41.8358C245.011 29.2107 236.258 20.9623 224.39 20.9623Z" fill="white"/>
<path fill-rule="evenodd" clip-rule="evenodd" d="M186.515 15.9964C190.134 15.9964 192.659 13.3872 192.659 10.1047C192.659 6.90634 190.05 4.54965 186.515 4.54965C183.064 4.54965 180.455 7.07467 180.455 10.273C180.455 13.4714 183.064 15.9964 186.515 15.9964Z" fill="#7C3AED"/>
</g>
<defs>
<clipPath id="clip0_12_5">
<rect width="275" height="96" fill="white"/>
</clipPath>
</defs>
</svg>
